<?xml version="1.0" encoding="utf-8"?>
<!-- Generator: Adobe Illustrator 15.0.0, SVG Export Plug-In . SVG Version: 6.00 Build 0)  -->
<!DOCTYPE svg PUBLIC "-//W3C//DTD SVG 1.1//EN" "http://www.w3.org/Graphics/SVG/1.1/DTD/svg11.dtd">
<svg version="1.1" id="Layer_1" xmlns="http://www.w3.org/2000/svg" xmlns:xlink="http://www.w3.org/1999/xlink" x="0px" y="0px"
	 width="368.588px" height="219.596px" viewBox="0 0 368.588 219.596" enable-background="new 0 0 368.588 219.596"
	 xml:space="preserve">
<title>Breaking Bad logo</title>
<linearGradient id="SVGID_1_" gradientUnits="userSpaceOnUse" x1="114.3345" y1="108.6277" x2="223.4086" y2="-0.4466" gradientTransform="matrix(1 0 0 -1 -0.0151 219.2944)">
	<stop  offset="0" style="stop-color:#15453D"/>
	<stop  offset="1" style="stop-color:#006C24"/>
</linearGradient>
<rect x="114.319" y="110.667" fill="url(#SVGID_1_)" width="109.074" height="109.074"/>
<path fill="#072508" d="M113.567,220.491V109.915h110.576v109.826v0.75H113.567L113.567,220.491z M223.394,219.741v-0.75V219.741
	L223.394,219.741z M115.067,218.991h107.574V111.417H115.067V218.991L115.067,218.991z"/>
<path fill="#FFFFFF" d="M131.006,135.599h28.532c9.963,0,17.965,5.022,17.965,15.073c0,6.644-3.658,10.984-10.303,12.261v0.172
	c8.346,0.852,13.027,7.75,13.027,14.988c0,15.157-10.813,18.141-23.416,18.141h-25.805V135.599z M142.419,159.956h13.541
	c5.023,0,9.625-1.961,9.625-7.752c0-4.6-2.984-7.578-9.625-7.578h-13.541V159.956z M142.419,186.186h14.818
	c6.898,0,11.07-2.133,11.07-8.435c0-6.813-4.258-9.282-11.156-9.282h-14.732V186.186z"/>
<path fill="#FFFFFF" d="M187.376,153.142h10.393v5.959h0.17c2.471-4.938,7.238-6.98,13.285-6.98v10.562
	c-7.07,0-13.455,3.319-13.455,12.686v20.867h-10.393V153.142z"/>
<path fill="#FFFFFF" d="M199.843,125.697h0.893c0.912,0,1.623-0.42,1.623-1.387c0-1.039-0.602-1.676-1.641-1.676
	c-1.258,0-1.66,1.094-1.75,2.133l-2.426-0.513c0.399-2.405,1.932-3.663,4.356-3.663c2.022,0,3.901,1.075,3.901,3.317
	c0,1.441-0.692,2.262-2.043,2.607v0.037c1.552,0.362,2.334,1.477,2.354,3.063c0,2.572-2.114,3.812-4.485,3.812
	c-2.427,0-4.304-1.13-4.304-4.267h2.334c0,1.33,0.675,2.226,2.041,2.226c1.168,0,1.861-0.785,1.861-1.914
	c0-1.388-0.875-1.843-1.824-1.843h-0.894v-1.933H199.843z"/>
<path fill="#FFFFFF" d="M207.687,120.81h6.928l-0.236,2.151h-4.795l-0.383,2.589c0.637-0.564,1.404-0.875,2.225-0.875
	c2.644,0,3.902,1.95,3.902,4.247c0,2.847-1.988,4.505-4.613,4.505c-2.315,0-4.213-1.148-4.321-3.646l2.553-0.199
	c0.019,1.039,0.692,1.914,1.787,1.914c1.494,0,2.043-1.258,2.043-2.553c0-1.641-0.84-2.334-2.08-2.334
	c-0.912,0-1.422,0.4-1.769,1.186l-2.114-0.164L207.687,120.81z"/>
<path fill="#154F3C" d="M242.448,173.913c-2.941,0-3.277,0.084-3.277,2.353c0,6.807,5.545,13.024,13.107,13.024
	c3.109,0,5.967-0.924,8.74-2.856c1.932-1.345,3.193-2.941,4.873-2.941c1.26,0,2.186,0.926,2.186,2.103
	c0,1.26-1.346,3.36-3.949,5.461c-4.623,3.78-8.908,5.715-14.705,5.715c-12.186,0-21.26-9.412-21.26-21.597
	c0-13.36,9.242-22.938,22.268-22.938c11.009,0,17.898,6.721,17.898,17.393c0,3.949-1.01,4.287-4.791,4.287h-20.502
	C242.784,173.913,242.616,173.913,242.448,173.913z M256.06,169.038c2.018,0,2.689-0.252,2.689-1.596
	c0-5.295-3.949-9.748-9.748-9.748c-5.629,0-9.41,4.453-9.41,9.748c0,1.344,0.588,1.596,2.604,1.596H256.06z"/>
<path fill="#154F3C" d="M310.081,188.954c2.523,0.756,4.035,0.756,4.035,2.521c0,2.521-4.119,5.379-9.58,5.379
	c-3.195,0-5.379-4.453-6.219-4.453c-1.346,0-5.043,4.453-12.521,4.453c-8.317,0-13.949-5.293-13.949-13.109
	c0-8.99,6.724-14.537,18.824-14.537c2.185,0,4.873,0.252,7.982,0.756v-4.537c0-5.041-2.27-7.814-6.303-7.814
	c-2.857,0-5.209,1.26-7.395,3.781c-1.767,2.018-2.857,4.369-6.388,4.369c-2.271,0-3.696-1.597-3.696-4.033
	c0-4.873,6.471-9.494,17.729-9.494c6.471,0,11.008,1.764,13.444,4.873c2.187,2.772,2.354,6.975,2.354,13.024v13.779
	C308.401,186.853,308.821,188.618,310.081,188.954z M292.435,174.669c-6.219,0-9.748,2.941-9.748,7.73
	c0,4.453,3.109,7.479,8.236,7.479c5.797,0,7.729-2.438,7.729-8.149v-6.303C296.384,174.921,294.284,174.669,292.435,174.669z"/>
<path fill="#154F3C" d="M133.56,57.023c0,1.764,0.084,2.604,0.84,2.604c0.42,0,2.187-1.092,4.875-3.528
	c3.445-3.193,5.377-5.125,5.377-6.134c0-1.094-3.192-1.01-3.192-3.36c0-2.857,3.444-3.445,10.588-3.445
	c5.211,0,7.813,1.008,7.813,3.193c0,3.276-4.032,2.268-7.563,4.369c-1.68,1.008-3.529,2.94-5.881,5.293
	c-1.178,1.178-1.85,1.934-1.85,2.438c0,0.84,1.512,2.773,4.201,6.303c5.967,7.73,10,12.185,12.018,13.697
	c2.855,2.017,6.553,1.344,6.553,4.201c0,2.52-2.688,3.445-8.57,3.445c-2.438,0-4.033-0.252-4.537-0.42
	c-2.354-0.843-4.285-3.865-7.729-8.236c-7.396-9.41-11.263-14.369-12.103-14.369c-0.756,0-0.84,0.674-0.84,2.271
	c0,0.504,0,1.092,0,1.848c0,7.059,0.168,11.094,1.176,12.27c1.179,1.345,4.371,0.925,4.371,3.613c0,2.438-3.108,3.025-9.832,3.025
	c-7.479,0-10.672-0.42-10.672-3.277c0-1.934,1.765-1.934,3.193-2.689c1.764-1.008,2.1-4.032,2.1-9.747
	c0-3.193-0.084-7.06-0.084-11.933c0-1.848,0-3.613,0-5.293c0-12.521-0.084-17.328-1.176-18.588
	c-0.672-0.756-2.102-0.924-3.865-1.514c-1.346-0.42-1.934-0.756-1.934-2.017c0-1.765,1.598-2.437,4.707-3.528
	c4.873-1.683,8.57-2.187,10.166-2.187c1.85,0,2.354,1.094,2.354,3.613c0,4.453-0.504,8.923-0.504,17.328V57.023L133.56,57.023z"/>
<path fill="#154F3C" d="M184.401,72.064c0,4.537,0.252,7.143,1.681,7.897c1.935,1.093,3.78,0.841,3.78,3.109
	c0,2.438-3.024,3.025-9.747,3.025c-7.479,0-10.755-0.42-10.755-3.277c0-1.934,1.766-1.934,3.191-2.689
	c1.682-0.924,2.018-3.024,2.018-6.723c0-1.764-0.084-3.781-0.084-6.303c0-1.597,0-3.107,0-4.453c0-6.891-0.084-10.504-1.514-11.26
	c-2.099-1.093-4.619-0.925-4.619-3.025c0-1.344,1.176-2.268,3.444-3.193c5.798-2.268,10.167-2.854,11.007-2.854
	c1.682,0,2.186,1.176,2.186,3.613c0,1.092,0,2.604-0.084,4.453l-0.336,10.924C184.485,65.006,184.401,68.619,184.401,72.064z
	 M178.854,26.663c3.865,0,6.472,2.438,6.472,5.462c0,3.025-2.856,5.629-6.976,5.629c-3.781,0-6.387-2.268-6.387-5.209
	C171.965,29.436,174.905,26.663,178.854,26.663z"/>
<path fill="#154F3C" d="M221.229,42.318c4.369,0,8.318,2.1,10.756,4.957c3.361,4.033,3.613,8.99,3.613,15.713
	c0,3.193,0,5.127,0,5.799c0,2.017-0.084,3.697-0.084,5.209c0,3.361,0.252,5.211,1.934,6.135c1.429,0.757,3.193,0.757,3.193,2.689
	c0,2.857-3.193,3.193-10.504,3.193c-6.891,0-10.084-0.42-10.084-2.941c0-2.27,1.848-2.018,3.78-3.109
	c1.513-0.84,1.765-3.696,1.765-8.905c0-13.529-0.168-20.504-7.981-20.504c-3.024,0-6.052,1.932-7.563,5.041
	c-1.596,3.192-1.68,8.823-1.68,16.975c0,4.201,0.084,6.555,1.596,7.395c1.934,1.093,3.781,0.841,3.781,3.109
	c0,2.438-3.025,3.025-9.749,3.025c-7.478,0-10.755-0.42-10.755-3.277c0-1.934,1.766-1.934,3.191-2.689
	c1.684-0.924,2.02-3.024,2.02-6.723c0-1.764-0.084-3.781-0.084-6.303c0-1.596,0-3.107,0-4.453c0-6.891-0.085-10.504-1.516-11.26
	c-2.1-1.092-4.619-0.924-4.619-3.025c0-1.344,1.175-2.268,3.445-3.193c5.461-2.1,9.494-2.688,10.586-2.688
	c1.597,0,2.271,0.756,2.271,2.688v2.354c0,0.252,0,0.42,0,0.504c0,0.336,0,0.504,0.335,0.504c0.169,0,0.336-0.084,0.421-0.168
	l1.008-0.924C212.827,45.174,215.095,42.318,221.229,42.318z"/>
<path fill="#154F3C" d="M243.915,58.535c0-9.244,7.73-16.217,18.57-16.217c2.941,0,6.639,0.672,11.092,1.68
	c2.271,0,4.705-1.176,7.982-3.444c1.176,0.756,1.851,1.766,1.851,2.772c0,2.353-1.767,4.705-5.212,6.471
	c1.177,2.269,1.767,4.453,1.767,6.976c0,9.242-7.396,15.965-18.825,15.965c-3.106,0-5.963-0.42-8.57-1.344
	c-1.176,1.26-1.764,2.352-1.764,3.36c0,2.771,2.771,3.949,8.318,3.949c4.286,0,8.654-0.926,13.193-0.926
	c7.982,0,12.268,3.361,12.268,9.328c0,8.74-9.411,15.883-23.695,15.883c-11.597,0-18.992-5.545-18.992-11.346
	c0-3.109,2.019-5.209,6.051-7.646c-3.359-1.176-5.209-3.444-5.209-6.303c0-2.939,2.101-5.713,6.218-8.234
	C245.595,66.602,243.915,62.904,243.915,58.535z M251.144,90.803c0,3.78,4.117,6.641,11.342,6.641
	c8.066,0,13.275-3.615,13.275-7.648c0-2.688-1.931-4.284-5.628-4.284c-2.606,0-6.472,0.84-11.428,0.84
	c-1.683,0-3.445-0.084-5.379-0.336C251.813,87.441,251.144,88.955,251.144,90.803z M261.729,67.189c4.789,0,8.402-3.865,8.402-9.662
	c0-5.967-3.529-9.832-8.318-9.832c-4.371,0-7.899,3.949-7.899,9.748C253.914,63.408,257.19,67.189,261.729,67.189z"/>
<path fill="#154F3C" d="M348.647,190.841c0-0.756-0.168-1.092-0.338-1.092c-0.252,0-1.26,0.924-3.191,2.353
	c-3.276,2.438-6.471,3.696-10.084,3.696c-10.42,0-18.066-8.149-18.066-20.754c0-13.949,8.57-23.526,20.67-23.526
	c5.885,0,9.498,2.521,10.168,2.521c0.504,0,0.588-0.756,0.588-2.102v-3.041c0-3.866-0.504-5.128-2.688-5.883
	c-2.018-0.673-3.78-0.673-3.78-2.606c0-1.848,1.765-2.688,5.294-3.948c3.694-1.345,6.637-1.849,8.737-1.849
	c1.933,0,2.688,1.008,2.688,3.529c0,1.429-0.504,8.925-0.504,26.568c0,14.369,0.084,21.681,1.262,22.521
	c1.848,1.344,5.209,0.504,5.209,3.024c0,2.017-2.271,2.689-6.639,4.117c-2.941,1.008-5.968,1.344-7.06,1.344
	c-1.597,0-2.267-0.84-2.267-2.771V190.841z M348.226,166.64c0-2.353,0-3.95-0.84-5.042c-1.763-2.354-5.376-4.283-9.074-4.283
	c-6.135,0-10.42,5.291-10.42,14.536c0,9.998,4.873,16.217,11.008,16.217c5.965,0,9.326-3.277,9.326-9.746V166.64z"/>
<linearGradient id="SVGID_2_" gradientUnits="userSpaceOnUse" x1="113.1641" y1="109.0422" x2="4.0874" y2="218.1189" gradientTransform="matrix(1 0 0 -1 -0.0151 219.2944)">
	<stop  offset="0" style="stop-color:#15453D"/>
	<stop  offset="1" style="stop-color:#006C24"/>
</linearGradient>
<rect x="4.071" y="1.176" fill="url(#SVGID_2_)" width="109.078" height="109.075"/>
<path fill="#072508" d="M3.319,111.001V0.426h110.58v109.825v0.748H3.319V111.001z M113.149,110.252v-0.75V110.252L113.149,110.252z
	 M4.819,109.502h107.58L112.397,1.927H4.819V109.502L4.819,109.502z"/>
<path fill="#FFFFFF" d="M12.233,26.11h28.525c9.965,0,17.969,5.025,17.969,15.073c0,6.642-3.662,10.979-10.307,12.26v0.171
	c8.348,0.851,13.031,7.747,13.031,14.983c0,15.16-10.814,18.145-23.42,18.145H12.232L12.233,26.11L12.233,26.11z M23.644,50.464
	h13.539c5.021,0,9.623-1.959,9.623-7.747c0-4.599-2.982-7.581-9.623-7.581H23.644V50.464z M23.644,76.691h14.813
	c6.9,0,11.076-2.129,11.076-8.432c0-6.812-4.26-9.279-11.158-9.279h-14.73L23.644,76.691L23.644,76.691z"/>
<path fill="#FFFFFF" d="M104.624,79.502c0,4.428,1.021,6.303,1.615,7.239H95.255c-0.678-1.022-1.02-2.813-1.02-3.92
	c-4.002,3.236-8.689,4.938-14.055,4.938c-8.174,0-14.646-5.193-14.646-13.535c0-8.434,6.727-12.184,13.115-13.461l4.342-0.848
	c3.748-0.767,8.604-1.619,11.244-2.556v-1.276c0-4.259-3.662-5.449-8.178-5.449c-6.045,0-8.006,1.787-8.006,6.473L67.663,56.68
	c0-10.132,8.941-14.045,18.395-14.045c9.287,0,18.566,1.873,18.566,14.131V79.502L104.624,79.502z M94.235,65.195
	c-1.359,0.683-3.066,1.193-4.941,1.531l-5.707,1.195c-3.916,0.766-7.149,1.871-7.149,5.959c0,3.237,2.978,5.366,6.728,5.366
	c4.854,0,11.071-2.385,11.071-7.918L94.235,65.195L94.235,65.195z"/>
<path fill="#FFFFFF" d="M86.937,10.601h6.93l-0.238,2.151h-4.795l-0.383,2.59c0.639-0.566,1.404-0.876,2.225-0.876
	c2.646,0,3.902,1.951,3.902,4.25c0,2.843-1.988,4.503-4.613,4.503c-2.315,0-4.213-1.15-4.321-3.647l2.553-0.2
	c0.019,1.039,0.692,1.914,1.787,1.914c1.496,0,2.043-1.257,2.043-2.553c0-1.641-0.84-2.334-2.08-2.334
	c-0.91,0-1.422,0.401-1.769,1.187l-2.114-0.163L86.937,10.601z"/>
<path fill="#FFFFFF" d="M102.056,13.847c-0.072-0.875-0.637-1.422-1.477-1.422c-1.771,0-2.171,2.313-2.171,3.771h0.037
	c0.31-0.455,1.021-1.146,2.425-1.146c2.315,0,3.666,1.659,3.666,4.084c0,2.299-1.679,4.085-4.14,4.085
	c-3.61,0-4.433-3.229-4.433-6.109c0-3.92,1.531-6.729,4.631-6.729c2.08,0,3.466,1.077,3.813,3.153L102.056,13.847z M98.591,19.134
	c0,1.275,0.639,2.042,1.807,2.042c1.166,0,1.805-0.767,1.805-2.042c0-1.276-0.639-2.042-1.805-2.042
	C99.229,17.093,98.591,17.858,98.591,19.134z"/>
</svg>
