# Blender v2.66 (sub 1) OBJ File: 'bread.blend'
# www.blender.org
mtllib bread.mtl
o Cube
v 0.000000 -0.165768 -0.000000
v -0.227666 0.476740 -0.703764
v 0.465358 0.073327 0.000000
v -0.000000 0.073327 0.669767
v -0.465358 0.073327 -0.000000
v 0.000000 0.073327 -0.669767
v -0.216100 0.542850 0.311021
v 0.227666 0.476740 0.703764
v -0.488980 0.470072 0.327669
v 0.488980 0.470072 -0.327668
v 0.227667 0.476740 -0.703764
v 0.259086 0.325719 -0.800887
v -0.259086 0.325719 -0.800887
v 0.216100 0.542850 0.311022
v 0.216100 0.542850 -0.311021
v -0.216100 0.542850 -0.311021
v -0.227667 0.476740 0.703764
v -0.259086 0.325719 0.800887
v 0.259085 0.325719 0.800887
v -0.488980 0.470072 -0.327669
v -0.556462 0.325719 -0.372889
v -0.556462 0.325719 0.372889
v 0.488980 0.470072 0.327669
v 0.556462 0.325719 0.372889
v 0.556462 0.325719 -0.372888
v -0.258561 0.403554 -0.799266
v 0.258561 0.403554 0.799267
v -0.555336 0.392886 0.372134
v 0.555336 0.392886 -0.372134
v 0.258562 0.403554 -0.799266
v -0.258562 0.403554 0.799266
v -0.555336 0.392886 -0.372134
v 0.555336 0.392886 0.372135
v -0.242291 0.263200 0.748970
v -0.520389 0.263200 -0.348716
v 0.242291 0.263200 -0.748970
v -0.242290 0.263200 -0.748970
v 0.242290 0.263200 0.748970
v -0.520390 0.263200 0.348716
v 0.520389 0.263200 0.348717
v 0.520390 0.263200 -0.348716
v 0.418418 -0.152706 0.000000
v 0.000000 -0.152706 -0.602208
v 0.426282 0.038530 -0.613526
v 0.000000 -0.152706 0.602208
v 0.426282 0.038530 0.613526
v -0.418418 -0.152706 -0.000000
v -0.426282 0.038530 0.613526
v -0.426282 0.038530 -0.613526
v 0.492778 0.224984 0.313178
v -0.217598 0.224984 -0.709230
v -0.217598 0.224984 0.709230
v -0.492778 0.224984 -0.313178
v 0.423496 0.510815 0.292868
v -0.203486 0.504055 -0.609516
v -0.203487 0.504055 0.609516
v -0.423496 0.510815 -0.292868
v -0.444734 0.445767 -0.640083
v 0.473301 0.263377 -0.681198
v 0.444734 0.445767 0.640083
v -0.473301 0.263377 0.681198
v 0.492778 0.224984 -0.313177
v 0.217598 0.224984 -0.709230
v 0.217598 0.224984 0.709230
v -0.492778 0.224984 0.313178
v 0.423496 0.510815 -0.292867
v 0.203487 0.504055 -0.609516
v 0.203486 0.504055 0.609516
v -0.423496 0.510815 0.292867
v -0.473301 0.263377 -0.681198
v 0.444734 0.445767 -0.640082
v 0.473301 0.263377 0.681198
v -0.444734 0.445767 0.640082
v 0.000000 0.507350 -0.746899
v 0.000000 0.263024 -0.794876
v 0.262561 0.357814 -0.811630
v -0.262561 0.357814 -0.811630
v -0.000000 0.570910 0.330085
v 0.000000 0.570910 -0.330084
v 0.229345 0.578035 0.000000
v -0.229345 0.578035 0.000000
v -0.000000 0.507350 0.746899
v -0.000000 0.263024 0.794876
v -0.262561 0.357814 0.811630
v 0.262561 0.357814 0.811630
v -0.518951 0.494741 -0.000000
v -0.552285 0.263024 -0.000000
v -0.563926 0.357232 -0.377891
v -0.563926 0.357232 0.377890
v 0.518951 0.494741 0.000000
v 0.552285 0.263024 0.000000
v 0.563926 0.357232 0.377891
v 0.563926 0.357232 -0.377890
v -0.505085 0.385697 -0.726943
v 0.505085 0.385697 0.726944
v 0.505085 0.385697 -0.726943
v -0.505085 0.385697 0.726943
v 0.000000 0.420829 -0.848255
v -0.000000 0.420829 0.848255
v -0.589374 0.400658 -0.000000
v 0.589374 0.400658 0.000000
v -0.252903 0.449040 -0.781774
v 0.252902 0.449040 0.781774
v -0.543182 0.429087 0.363989
v 0.543182 0.429087 -0.363989
v 0.252903 0.449040 -0.781774
v -0.252903 0.449040 0.781774
v -0.543182 0.429087 -0.363990
v 0.543182 0.429087 0.363990
v 0.254664 0.294459 0.787219
v -0.254664 0.294459 -0.787219
v 0.254664 0.294459 -0.787219
v -0.254664 0.294459 0.787219
v 0.506109 0.322063 0.728418
v -0.506110 0.322063 0.728417
v 0.506110 0.322063 -0.728417
v -0.506109 0.322063 -0.728417
v 0.590569 0.329374 0.000000
v -0.000000 0.329374 0.849975
v 0.000000 0.329374 -0.849975
v -0.590569 0.329374 -0.000000
v 0.546966 0.294459 -0.366525
v -0.546966 0.294459 0.366525
v -0.546965 0.294459 -0.366525
v 0.546965 0.294459 0.366526
v 0.409707 -0.151198 -0.589670
v 0.409707 -0.151198 0.589670
v -0.409707 -0.151198 0.589670
v -0.409707 -0.151198 -0.589671
v 0.449100 0.224697 -0.646366
v 0.449100 0.224697 0.646367
v -0.449100 0.224697 0.646366
v -0.449100 0.224697 -0.646367
v 0.393820 0.471206 -0.566804
v 0.393819 0.471206 0.566805
v -0.393820 0.471206 0.566804
v -0.393820 0.471206 -0.566804
v 0.523884 0.232368 0.000000
v 0.000000 0.232368 -0.754000
v -0.000000 0.232368 0.754000
v -0.523884 0.232368 -0.000000
v 0.449387 0.549023 0.000000
v 0.000000 0.535938 -0.646780
v -0.000000 0.535938 0.646781
v -0.449388 0.549023 -0.000000
v -0.512877 0.351643 -0.738158
v 0.512877 0.351643 -0.738157
v 0.512877 0.351643 0.738158
v -0.512877 0.351643 0.738157
v 0.000000 0.363986 -0.861366
v -0.000000 0.602426 0.000000
v -0.000000 0.363986 0.861366
v -0.598483 0.362820 -0.000000
v 0.598483 0.362820 0.000000
v -0.493975 0.419514 -0.710953
v 0.493975 0.419514 0.710953
v 0.493975 0.419514 -0.710953
v -0.493975 0.419514 0.710953
v 0.000000 0.477400 -0.829663
v -0.000000 0.477400 0.829663
v -0.576456 0.439826 -0.000000
v 0.576455 0.439826 0.000000
v 0.497449 0.292720 0.715954
v -0.497449 0.292720 -0.715953
v -0.497450 0.292720 0.715953
v 0.497450 0.292720 -0.715953
v 0.580482 0.296199 0.000000
v -0.580482 0.296199 -0.000000
v -0.000000 0.296199 0.835458
v 0.000000 0.296199 -0.835458
vt 0.477098 0.372483
vt 0.477098 0.336128
vt 0.800149 0.336128
vt 0.800149 0.372483
vt 0.800149 0.408837
vt 0.477098 0.408837
vt 0.154047 0.408837
vt 0.154047 0.372483
vt 0.154047 0.336128
vt 0.783300 0.784160
vt 0.805164 0.706611
vt 0.844601 0.706611
vt 0.820197 0.793165
vt 0.795794 0.879720
vt 0.761435 0.861709
vt 0.727077 0.843699
vt 0.746402 0.775155
vt 0.765728 0.706611
vt 0.472656 0.379716
vt 0.472656 0.332261
vt 0.156222 0.332261
vt 0.148076 0.371905
vt 0.139930 0.411550
vt 0.306293 0.411255
vt 0.472656 0.410960
vt 0.639019 0.411255
vt 0.805383 0.411550
vt 0.797236 0.371905
vt 0.789090 0.332261
vt 0.477098 0.379174
vt 0.169865 0.336128
vt 0.161956 0.372088
vt 0.154047 0.408049
vt 0.315572 0.407782
vt 0.477098 0.407515
vt 0.638623 0.407782
vt 0.800149 0.408049
vt 0.792240 0.372088
vt 0.784330 0.336128
vt 0.477099 0.336128
vt 0.161958 0.372088
vt 0.169869 0.336128
vt 0.477098 0.365003
vt 0.638623 0.336395
vt 0.784330 0.408049
vt 0.477098 0.408049
vt 0.169866 0.408049
vt 0.315572 0.336395
vt 0.477098 0.336663
vt 0.325119 0.780220
vt 0.315456 0.706611
vt 0.465547 0.706611
vt 0.465547 0.785285
vt 0.465547 0.863960
vt 0.334782 0.853830
vt 0.204017 0.843699
vt 0.184691 0.775155
vt 0.165366 0.706611
vt 0.147794 0.629061
vt 0.125929 0.706611
vt 0.086493 0.706611
vt 0.110896 0.620056
vt 0.135300 0.533502
vt 0.169659 0.551512
vt 0.204017 0.569522
vt 0.184691 0.638066
vt 0.317603 0.873171
vt 0.465547 0.884632
vt 0.465547 0.905304
vt 0.300424 0.892512
vt 0.135300 0.879720
vt 0.169659 0.861710
vt 0.613491 0.540051
vt 0.465547 0.528590
vt 0.465547 0.507918
vt 0.630670 0.520710
vt 0.795793 0.533502
vt 0.761435 0.551512
vt 0.727076 0.569522
vt 0.596311 0.559392
vt 0.465547 0.549262
vt 0.783300 0.629061
vt 0.820197 0.620056
vt 0.746402 0.638066
vt 0.827151 0.618359
vt 0.802269 0.530107
vt 0.797156 0.532787
vt 0.821661 0.619699
vt 0.846165 0.706611
vt 0.852033 0.706611
vt 0.857902 0.706611
vt 0.832642 0.617019
vt 0.807382 0.527427
vt 0.827151 0.794862
vt 0.821661 0.793522
vt 0.797156 0.880434
vt 0.802269 0.883114
vt 0.807382 0.885794
vt 0.832642 0.796202
vt 0.325119 0.633001
vt 0.334782 0.559392
vt 0.465547 0.627936
vt 0.605974 0.633001
vt 0.615637 0.706611
vt 0.605974 0.780220
vt 0.596312 0.853830
vt 0.147794 0.784160
vt 0.110896 0.793165
vt 0.103942 0.794862
vt 0.128825 0.883114
vt 0.133937 0.880434
vt 0.109433 0.793523
vt 0.084928 0.706611
vt 0.079060 0.706611
vt 0.073192 0.706611
vt 0.098452 0.796202
vt 0.123712 0.885794
vt 0.103942 0.618359
vt 0.109433 0.619699
vt 0.133937 0.532788
vt 0.128824 0.530108
vt 0.123712 0.527428
vt 0.098452 0.617019
vt 0.613491 0.873171
vt 0.630670 0.892512
vt 0.633908 0.896157
vt 0.631352 0.893279
vt 0.465547 0.906123
vt 0.465547 0.909199
vt 0.465547 0.912276
vt 0.636464 0.899035
vt 0.297186 0.896157
vt 0.299742 0.893279
vt 0.294629 0.899035
vt 0.317603 0.540051
vt 0.300423 0.520710
vt 0.297186 0.517065
vt 0.299742 0.519943
vt 0.465547 0.507098
vt 0.465547 0.504022
vt 0.465547 0.500946
vt 0.294629 0.514187
vt 0.633908 0.517065
vt 0.631352 0.519943
vt 0.636464 0.514187
vt 0.826420 0.794684
vt 0.851251 0.706611
vt 0.801588 0.882757
vt 0.104674 0.618538
vt 0.079842 0.706611
vt 0.129506 0.530465
vt 0.297527 0.895773
vt 0.465547 0.908790
vt 0.129506 0.882757
vt 0.633567 0.517448
vt 0.465547 0.504432
vt 0.801588 0.530465
vt 0.826419 0.618538
vt 0.104674 0.794684
vt 0.633567 0.895773
vt 0.297526 0.517448
vt 0.127383 0.789142
vt 0.150653 0.871672
vt 0.167368 0.862910
vt 0.145334 0.784761
vt 0.123300 0.706611
vt 0.104114 0.706611
vt 0.622994 0.883869
vt 0.780441 0.871672
vt 0.763726 0.862910
vt 0.614636 0.874460
vt 0.465547 0.886010
vt 0.465547 0.896067
vt 0.803710 0.624080
vt 0.780441 0.541549
vt 0.763726 0.550311
vt 0.785760 0.628461
vt 0.807794 0.706611
vt 0.826980 0.706611
vt 0.803711 0.789141
vt 0.785760 0.784760
vt 0.127383 0.624080
vt 0.145334 0.628461
vt 0.167368 0.550311
vt 0.150652 0.541549
vt 0.308100 0.883869
vt 0.316458 0.874460
vt 0.308100 0.529352
vt 0.316457 0.538761
vt 0.465547 0.527212
vt 0.465547 0.517155
vt 0.622994 0.529352
vt 0.614636 0.538761
vn 0.000000 -1.000000 0.000000
vn 0.000000 -0.771172 -0.636586
vn 0.545122 -0.668264 -0.506180
vn 0.660390 -0.750908 0.000000
vn 0.545122 -0.668264 0.506180
vn 0.000000 -0.771172 0.636586
vn -0.545122 -0.668264 0.506180
vn -0.660390 -0.750908 0.000000
vn -0.545122 -0.668264 -0.506180
vn -0.189581 0.948149 -0.255013
vn 0.000000 0.958037 -0.286538
vn 0.000000 0.709098 -0.705069
vn -0.238380 0.721854 -0.649678
vn -0.593585 0.668630 -0.447798
vn -0.323160 0.929594 -0.177068
vn -0.267434 0.948851 -0.167669
vn -0.180853 0.966460 -0.182318
vn 0.000000 0.980804 -0.194983
vn 0.972228 -0.233955 0.000000
vn 0.702963 -0.291086 -0.648885
vn 0.622822 -0.598224 -0.504166
vn 0.888424 -0.453108 -0.073122
vn 0.857021 -0.515213 0.000000
vn 0.888424 -0.453108 0.073122
vn 0.622822 -0.598224 0.504166
vn 0.702963 -0.291086 0.648885
vn 0.000000 -0.317789 0.948149
vn 0.134342 -0.574145 0.807642
vn 0.000000 -0.654256 0.756249
vn -0.134342 -0.574145 0.807642
vn -0.622822 -0.598224 0.504166
vn -0.702963 -0.291086 0.648885
vn -0.972228 -0.233955 0.000000
vn -0.888424 -0.453108 0.073122
vn -0.857021 -0.515213 0.000000
vn -0.888424 -0.453108 -0.073122
vn -0.622822 -0.598224 -0.504166
vn -0.702963 -0.291086 -0.648885
vn 0.000000 -0.317789 -0.948149
vn 0.134342 -0.574145 -0.807642
vn -0.134342 -0.574145 -0.807642
vn 0.000000 -0.654256 -0.756249
vn -0.150914 0.980560 0.125340
vn 0.000000 0.993408 0.114475
vn 0.000000 1.000000 0.000000
vn -0.134312 0.990936 0.000000
vn -0.361919 0.932188 0.000000
vn -0.330058 0.933500 0.139958
vn -0.267434 0.948851 0.167669
vn -0.180853 0.966460 0.182318
vn 0.000000 0.980804 0.194983
vn 0.189581 0.948149 0.255013
vn 0.000000 0.958037 0.286538
vn 0.000000 0.709098 0.705069
vn 0.238380 0.721854 0.649678
vn 0.593585 0.668630 0.447798
vn 0.323160 0.929594 0.177068
vn 0.267434 0.948851 0.167669
vn 0.180853 0.966460 0.182318
vn -0.511032 0.850734 0.122532
vn -0.593860 0.804559 0.000000
vn -0.823145 0.567827 0.000000
vn -0.774071 0.622272 0.116428
vn -0.593585 0.668630 0.447798
vn -0.323160 0.929594 0.177068
vn 0.511032 0.850734 -0.122532
vn 0.593860 0.804559 0.000000
vn 0.823145 0.567827 0.000000
vn 0.774071 0.622272 -0.116428
vn 0.593585 0.668630 -0.447798
vn 0.323160 0.929594 -0.177068
vn 0.267434 0.948851 -0.167669
vn 0.330058 0.933500 -0.139958
vn 0.361919 0.932188 0.000000
vn 0.189581 0.948149 -0.255013
vn 0.238380 0.721854 -0.649678
vn 0.180853 0.966460 -0.182318
vn 0.211859 -0.373882 -0.902921
vn 0.701071 -0.388409 -0.597980
vn 0.614521 -0.600177 -0.511948
vn 0.180548 -0.616932 -0.765984
vn 0.000000 -0.600391 -0.799676
vn 0.000000 -0.364910 -0.931028
vn 0.000000 -0.033662 -0.999420
vn 0.237709 -0.027467 -0.970946
vn 0.737632 -0.014740 -0.675008
vn -0.211859 -0.373882 -0.902921
vn -0.180548 -0.616932 -0.765984
vn -0.614521 -0.600177 -0.511948
vn -0.701071 -0.388409 -0.597980
vn -0.737632 -0.014740 -0.675008
vn -0.237709 -0.027467 -0.970946
vn 0.150914 0.980560 0.125340
vn 0.330058 0.933500 0.139958
vn 0.134312 0.990936 0.000000
vn 0.150914 0.980560 -0.125340
vn 0.000000 0.993408 -0.114475
vn -0.150914 0.980560 -0.125340
vn -0.330058 0.933500 -0.139958
vn -0.189581 0.948149 0.255013
vn -0.238380 0.721854 0.649678
vn -0.211859 -0.373882 0.902921
vn -0.701071 -0.388409 0.597980
vn -0.614521 -0.600177 0.511948
vn -0.180548 -0.616932 0.766015
vn 0.000000 -0.600391 0.799676
vn 0.000000 -0.364910 0.931028
vn 0.000000 -0.033662 0.999420
vn -0.237709 -0.027467 0.970946
vn -0.737632 -0.014740 0.675008
vn 0.211859 -0.373882 0.902921
vn 0.180548 -0.616932 0.766015
vn 0.614521 -0.600177 0.511948
vn 0.701071 -0.388409 0.597980
vn 0.737632 -0.014740 0.675008
vn 0.237709 -0.027467 0.970946
vn -0.511032 0.850734 -0.122532
vn -0.774071 0.622272 -0.116428
vn -0.954466 -0.277749 -0.108615
vn -0.859004 -0.502365 -0.098666
vn -0.875301 -0.483535 0.000000
vn -0.963683 -0.267037 0.000000
vn -0.999969 0.004425 0.000000
vn -0.992950 0.002136 -0.118320
vn -0.954466 -0.277749 0.108615
vn -0.859004 -0.502365 0.098666
vn -0.992950 0.002136 0.118320
vn 0.511032 0.850734 0.122532
vn 0.774071 0.622272 0.116428
vn 0.954466 -0.277749 0.108615
vn 0.859004 -0.502365 0.098666
vn 0.875301 -0.483535 0.000000
vn 0.963683 -0.267037 0.000000
vn 0.999969 0.004425 0.000000
vn 0.992950 0.002136 0.118320
vn 0.954466 -0.277749 -0.108615
vn 0.859004 -0.502365 -0.098666
vn 0.992950 0.002136 -0.118320
vn -0.243294 0.329569 -0.912229
vn 0.000000 0.296579 -0.954985
vn -0.706961 0.379131 -0.596973
vn 0.243294 0.329569 0.912229
vn 0.000000 0.296579 0.954985
vn 0.706961 0.379131 0.596973
vn -0.948271 0.295083 0.117038
vn -0.959075 0.283059 0.000000
vn -0.706961 0.379131 0.596973
vn 0.948271 0.295083 -0.117038
vn 0.959075 0.283059 0.000000
vn 0.706961 0.379131 -0.596973
vn 0.243294 0.329569 -0.912229
vn -0.243294 0.329569 0.912229
vn -0.948271 0.295083 -0.117038
vn 0.948271 0.295083 0.117038
vn -0.146123 -0.772240 0.618275
vn -0.495193 -0.780328 0.381878
vn 0.000000 -0.780297 0.625355
vn -0.754845 -0.650105 -0.086612
vn -0.495193 -0.780328 -0.381878
vn -0.755730 -0.654836 0.000000
vn 0.146123 -0.772240 -0.618275
vn 0.495193 -0.780328 -0.381878
vn 0.000000 -0.780297 -0.625355
vn -0.146123 -0.772240 -0.618275
vn 0.146123 -0.772240 0.618275
vn 0.495193 -0.780328 0.381878
vn -0.754845 -0.650105 0.086612
vn 0.754845 -0.650105 0.086612
vn 0.755730 -0.654836 0.000000
vn 0.754845 -0.650105 -0.086612
usemtl Material
s 1
f 1/1/1 43/2/2 126/3/3 42/4/4
f 1/1/1 42/4/4 127/5/5 45/6/6
f 1/1/1 45/6/6 128/7/7 47/8/8
f 1/1/1 47/8/8 129/9/9 43/2/2
f 2/10/10 74/11/11 159/12/12 102/13/13
f 2/10/10 102/13/13 155/14/14 58/15/15
f 2/10/10 58/15/15 137/16/16 55/17/17
f 2/10/10 55/17/17 143/18/18 74/11/11
f 3/19/19 42/20/4 126/21/3 44/22/20
f 3/19/19 44/22/20 130/23/21 62/24/22
f 3/19/19 62/24/22 138/25/23 50/26/24
f 3/19/19 50/26/24 131/27/25 46/28/26
f 3/19/19 46/28/26 127/29/5 42/20/4
f 4/30/27 45/2/6 127/31/5 46/32/26
f 4/30/27 46/32/26 131/33/25 64/34/28
f 4/30/27 64/34/28 140/35/29 52/36/30
f 4/30/27 52/36/30 132/37/31 48/38/32
f 4/30/27 48/38/32 128/39/7 45/2/6
f 5/30/33 47/40/8 128/39/7 48/38/32
f 5/30/33 48/38/32 132/37/31 65/36/34
f 5/30/33 65/36/34 141/35/35 53/34/36
f 5/30/33 53/34/36 133/33/37 49/41/38
f 5/30/33 49/41/38 129/42/9 47/40/8
f 6/43/39 63/44/40 130/3/21 44/38/20
f 6/43/39 44/38/20 126/45/3 43/46/2
f 6/43/39 43/46/2 129/47/9 49/32/38
f 6/43/39 49/32/38 133/9/37 51/48/41
f 6/43/39 51/48/41 139/49/42 63/44/40
f 7/50/43 78/51/44 151/52/45 81/53/46
f 7/50/43 81/53/46 145/54/47 69/55/48
f 7/50/43 69/55/48 136/56/49 56/57/50
f 7/50/43 56/57/50 144/58/51 78/51/44
f 8/59/52 82/60/53 160/61/54 103/62/55
f 8/59/52 103/62/55 156/63/56 60/64/57
f 8/59/52 60/64/57 135/65/58 68/66/59
f 8/59/52 68/66/59 144/58/51 82/60/53
f 9/67/60 86/68/61 161/69/62 104/70/63
f 9/67/60 104/70/63 158/71/64 73/72/65
f 9/67/60 73/72/65 136/56/49 69/55/48
f 9/67/60 69/55/48 145/54/47 86/68/61
f 10/73/66 90/74/67 162/75/68 105/76/69
f 10/73/66 105/76/69 157/77/70 71/78/71
f 10/73/66 71/78/71 134/79/72 66/80/73
f 10/73/66 66/80/73 142/81/74 90/74/67
f 11/82/75 71/78/71 157/77/70 106/83/76
f 11/82/75 106/83/76 159/12/12 74/11/11
f 11/82/75 74/11/11 143/18/18 67/84/77
f 11/82/75 67/84/77 134/79/72 71/78/71
f 12/85/78 116/86/79 166/87/80 112/88/81
f 12/85/78 112/88/81 170/89/82 120/90/83
f 12/85/78 120/90/83 150/91/84 76/92/85
f 12/85/78 76/92/85 147/93/86 116/86/79
f 13/94/87 120/90/83 170/89/82 111/95/88
f 13/94/87 111/95/88 164/96/89 117/97/90
f 13/94/87 117/97/90 146/98/91 77/99/92
f 13/94/87 77/99/92 150/91/84 120/90/83
f 14/100/93 54/101/94 142/81/74 80/102/95
f 14/100/93 80/102/95 151/52/45 78/51/44
f 14/100/93 78/51/44 144/58/51 68/66/59
f 14/100/93 68/66/59 135/65/58 54/101/94
f 15/103/96 66/80/73 134/79/72 67/84/77
f 15/103/96 67/84/77 143/18/18 79/104/97
f 15/103/96 79/104/97 151/52/45 80/102/95
f 15/103/96 80/102/95 142/81/74 66/80/73
f 16/105/98 79/104/97 143/18/18 55/17/17
f 16/105/98 55/17/17 137/16/16 57/106/99
f 16/105/98 57/106/99 145/54/47 81/53/46
f 16/105/98 81/53/46 151/52/45 79/104/97
f 17/107/100 73/72/65 158/71/64 107/108/101
f 17/107/100 107/108/101 160/61/54 82/60/53
f 17/107/100 82/60/53 144/58/51 56/57/50
f 17/107/100 56/57/50 136/56/49 73/72/65
f 18/109/102 115/110/103 165/111/104 113/112/105
f 18/109/102 113/112/105 169/113/106 119/114/107
f 18/109/102 119/114/107 152/115/108 84/116/109
f 18/109/102 84/116/109 149/117/110 115/110/103
f 19/118/111 119/114/107 169/113/106 110/119/112
f 19/118/111 110/119/112 163/120/113 114/121/114
f 19/118/111 114/121/114 148/122/115 85/123/116
f 19/118/111 85/123/116 152/115/108 119/114/107
f 20/124/117 58/15/15 155/14/14 108/125/118
f 20/124/117 108/125/118 161/69/62 86/68/61
f 20/124/117 86/68/61 145/54/47 57/106/99
f 20/124/117 57/106/99 137/16/16 58/15/15
f 21/126/119 117/97/90 164/96/89 124/127/120
f 21/126/119 124/127/120 168/128/121 121/129/122
f 21/126/119 121/129/122 153/130/123 88/131/124
f 21/126/119 88/131/124 146/98/91 117/97/90
f 22/132/125 121/129/122 168/128/121 123/133/126
f 22/132/125 123/133/126 165/111/104 115/110/103
f 22/132/125 115/110/103 149/117/110 89/134/127
f 22/132/125 89/134/127 153/130/123 121/129/122
f 23/135/128 60/64/57 156/63/56 109/136/129
f 23/135/128 109/136/129 162/75/68 90/74/67
f 23/135/128 90/74/67 142/81/74 54/101/94
f 23/135/128 54/101/94 135/65/58 60/64/57
f 24/137/130 114/121/114 163/120/113 125/138/131
f 24/137/130 125/138/131 167/139/132 118/140/133
f 24/137/130 118/140/133 154/141/134 92/142/135
f 24/137/130 92/142/135 148/122/115 114/121/114
f 25/143/136 118/140/133 167/139/132 122/144/137
f 25/143/136 122/144/137 166/87/80 116/86/79
f 25/143/136 116/86/79 147/93/86 93/145/138
f 25/143/136 93/145/138 154/141/134 118/140/133
f 26/146/139 98/147/140 150/91/84 77/99/92
f 26/146/139 77/99/92 146/98/91 94/148/141
f 26/146/139 94/148/141 155/14/14 102/13/13
f 26/146/139 102/13/13 159/12/12 98/147/140
f 27/149/142 99/150/143 152/115/108 85/123/116
f 27/149/142 85/123/116 148/122/115 95/151/144
f 27/149/142 95/151/144 156/63/56 103/62/55
f 27/149/142 103/62/55 160/61/54 99/150/143
f 28/152/145 100/153/146 153/130/123 89/134/127
f 28/152/145 89/134/127 149/117/110 97/154/147
f 28/152/145 97/154/147 158/71/64 104/70/63
f 28/152/145 104/70/63 161/69/62 100/153/146
f 29/155/148 101/156/149 154/141/134 93/145/138
f 29/155/148 93/145/138 147/93/86 96/157/150
f 29/155/148 96/157/150 157/77/70 105/76/69
f 29/155/148 105/76/69 162/75/68 101/156/149
f 30/158/151 96/157/150 147/93/86 76/92/85
f 30/158/151 76/92/85 150/91/84 98/147/140
f 30/158/151 98/147/140 159/12/12 106/83/76
f 30/158/151 106/83/76 157/77/70 96/157/150
f 31/159/152 97/154/147 149/117/110 84/116/109
f 31/159/152 84/116/109 152/115/108 99/150/143
f 31/159/152 99/150/143 160/61/54 107/108/101
f 31/159/152 107/108/101 158/71/64 97/154/147
f 32/160/153 94/148/141 146/98/91 88/131/124
f 32/160/153 88/131/124 153/130/123 100/153/146
f 32/160/153 100/153/146 161/69/62 108/125/118
f 32/160/153 108/125/118 155/14/14 94/148/141
f 33/161/154 95/151/144 148/122/115 92/142/135
f 33/161/154 92/142/135 154/141/134 101/156/149
f 33/161/154 101/156/149 162/75/68 109/136/129
f 33/161/154 109/136/129 156/63/56 95/151/144
f 34/162/155 61/163/156 132/164/31 52/165/30
f 34/162/155 52/165/30 140/166/29 83/167/157
f 34/162/155 83/167/157 169/113/106 113/112/105
f 34/162/155 113/112/105 165/111/104 61/163/156
f 35/168/158 70/169/159 133/170/37 53/171/36
f 35/168/158 53/171/36 141/172/35 87/173/160
f 35/168/158 87/173/160 168/128/121 124/127/120
f 35/168/158 124/127/120 164/96/89 70/169/159
f 36/174/161 59/175/162 130/176/21 63/177/40
f 36/174/161 63/177/40 139/178/42 75/179/163
f 36/174/161 75/179/163 170/89/82 112/88/81
f 36/174/161 112/88/81 166/87/80 59/175/162
f 37/180/164 75/179/163 139/178/42 51/181/41
f 37/180/164 51/181/41 133/170/37 70/169/159
f 37/180/164 70/169/159 164/96/89 111/95/88
f 37/180/164 111/95/88 170/89/82 75/179/163
f 38/182/165 83/167/157 140/166/29 64/183/28
f 38/182/165 64/183/28 131/184/25 72/185/166
f 38/182/165 72/185/166 163/120/113 110/119/112
f 38/182/165 110/119/112 169/113/106 83/167/157
f 39/186/167 87/173/160 141/172/35 65/187/34
f 39/186/167 65/187/34 132/164/31 61/163/156
f 39/186/167 61/163/156 165/111/104 123/133/126
f 39/186/167 123/133/126 168/128/121 87/173/160
f 40/188/168 72/185/166 131/184/25 50/189/24
f 40/188/168 50/189/24 138/190/23 91/191/169
f 40/188/168 91/191/169 167/139/132 125/138/131
f 40/188/168 125/138/131 163/120/113 72/185/166
f 41/192/170 91/191/169 138/190/23 62/193/22
f 41/192/170 62/193/22 130/176/21 59/175/162
f 41/192/170 59/175/162 166/87/80 122/144/137
f 41/192/170 122/144/137 167/139/132 91/191/169
