<?xml version="1.0" encoding="UTF-8" standalone="no"?>
<!-- Created with Inkscape (http://www.inkscape.org/) -->

<svg
   xmlns:dc="http://purl.org/dc/elements/1.1/"
   xmlns:cc="http://creativecommons.org/ns#"
   xmlns:rdf="http://www.w3.org/1999/02/22-rdf-syntax-ns#"
   xmlns:svg="http://www.w3.org/2000/svg"
   xmlns="http://www.w3.org/2000/svg"
   xmlns:sodipodi="http://sodipodi.sourceforge.net/DTD/sodipodi-0.dtd"
   xmlns:inkscape="http://www.inkscape.org/namespaces/inkscape"
   id="svg3039"
   version="1.1"
   inkscape:version="0.48.4 r9939"
   width="659"
   height="1105"
   sodipodi:docname="gegner.svg"
   inkscape:export-filename="C:\Users\soerensen\Desktop\ludum dare\img\gegner.png"
   inkscape:export-xdpi="13.66"
   inkscape:export-ydpi="13.66">
  <metadata
     id="metadata3045">
    <rdf:RDF>
      <cc:Work
         rdf:about="">
        <dc:format>image/svg+xml</dc:format>
        <dc:type
           rdf:resource="http://purl.org/dc/dcmitype/StillImage" />
        <dc:title></dc:title>
      </cc:Work>
    </rdf:RDF>
  </metadata>
  <defs
     id="defs3043">
    <inkscape:path-effect
       effect="spiro"
       id="path-effect3140"
       is_visible="true" />
    <inkscape:path-effect
       effect="bend_path"
       id="path-effect3138"
       is_visible="true"
       bendpath="M 40.030308,535.35474 C 155.312,662.01981 352.37098,464.6204 604.95339,455.75728"
       prop_scale="1"
       scale_y_rel="false"
       vertical="false"
       bendpath-nodetypes="cc" />
    <inkscape:path-effect
       effect="rough_hatches"
       id="path-effect3136"
       is_visible="true"
       direction="329.51515,530.35474 , 144.74242,0"
       dist_rdm="74.9;1"
       growth="0"
       do_bend="true"
       bender="329.51515,535.35474 , 5,0"
       bottom_edge_variation="101.49757;-1817563905"
       top_edge_variation="101.49757;-2022967526"
       bottom_tgt_variation="0;2000763733"
       top_tgt_variation="0;-979742394"
       scale_bf="1"
       scale_bb="1"
       scale_tf="1"
       scale_tb="1"
       top_smth_variation="0;1"
       bottom_smth_variation="0;1"
       fat_output="true"
       stroke_width_top="1"
       stroke_width_bottom="1"
       front_thickness="1"
       back_thickness="0.25" />
  </defs>
  <sodipodi:namedview
     pagecolor="#ffffff"
     bordercolor="#666666"
     borderopacity="1"
     objecttolerance="10"
     gridtolerance="10"
     guidetolerance="10"
     inkscape:pageopacity="0"
     inkscape:pageshadow="2"
     inkscape:window-width="1280"
     inkscape:window-height="962"
     id="namedview3041"
     showgrid="false"
     inkscape:zoom="0.42714931"
     inkscape:cx="653.80432"
     inkscape:cy="568.63899"
     inkscape:window-x="-8"
     inkscape:window-y="-8"
     inkscape:window-maximized="1"
     inkscape:current-layer="svg3039" />
  <path
     style="fill:#000000"
     d="m 185.71875,-17 c -16.08966,84.52423 -17.68227,171.78872 -4.6875,256.84375 L 96.9375,324.8125 C 69.020839,301.17628 44.864801,273.10767 25.652001,241.98084 10.832298,217.97131 -1.0532117,192.15259 -9.65625,165.28125 l 2.6599402,39.74434 57.7938928,159.87686 c -12.29716,34.59397 -21.749036,70.19889 -28.228845,106.33717 -9.195045,51.28131 -12.36105,104.16308 -3.126441,155.43729 9.234609,51.2742 31.476553,101.00755 68.088953,138.07309 30.15274,30.52593 69.60093,51.74527 111.69094,60.07901 l 94.15967,94.38684 c 10.02178,8.68509 17.47176,20.30199 21.18436,33.0332 3.7126,12.7312 3.67469,26.53167 -0.10779,39.24229 -5.10518,17.15536 -16.54768,31.57896 -27.46748,45.76086 -10.9198,14.182 -21.83827,29.1779 -25.57358,46.6827 -3.26732,15.3117 -0.56037,31.8179 7.42638,45.2839 l 49.50819,-16.9589 26.02306,-109.3224 50.97344,-42.23431 43.73578,-66.50895 C 443.79691,874.06883 453.46662,855.12336 467,839.5 485.99046,817.57681 512.62991,802.4123 541.17594,797.27534 585.788,762.87891 622.17652,717.88944 646.48696,667.07259 681.81203,593.2315 690.95687,506.82977 669.9375,427.71875 653.27436,365.00339 617.94906,307.37141 569.625,264.0625 l -7.15677,-79.14655 30.06302,-113.6972 -72.15625,142.25 -123.22638,-36.10606 -10.55487,-6.64394 -8.04552,-46.19905 -9.25837,-25.692541 c 1.23477,-5.632837 -0.31229,-11.807022 -4.05725,-16.192092 -3.74495,-4.385071 -9.60094,-6.879331 -15.35761,-6.541317 -5.58125,0.327714 -10.94959,3.301729 -14.18733,7.859659 -3.23774,4.557929 -4.27838,10.606148 -2.75017,15.984091 l -12.18566,16.54691 -13.72059,35.48434 3.54243,31.95095 -61.60493,34.6428 -36.84318,-34.37096 c -9.46312,-43.84591 -16.37106,-88.243163 -20.6771,-132.891487 -2.35582,-24.426948 -3.93346,-48.9289385 -4.72972,-73.456303 -0.33927,1.717591 -0.67261,3.436355 -1,5.15625 M 352,39.71875 c -4.10395,0.183689 -8.11992,1.918223 -11.06717,4.780011 -2.94725,2.861788 -4.79918,6.824994 -5.10352,10.921762 -0.30434,4.096767 0.94165,8.290111 3.4337,11.555972 2.49204,3.265862 6.20763,5.574757 10.23939,6.36283 3.87892,0.758198 8.01783,0.106448 11.47603,-1.807119 3.4582,-1.913568 6.20889,-5.074122 7.62688,-8.763322 1.41799,-3.6892 1.49229,-7.878456 0.20601,-11.615618 C 367.52505,47.416103 364.88817,44.159994 361.5,42.125 358.6592,40.418766 355.3105,39.570575 352,39.71875 m 68.5,185.875 c 26.07643,-0.0551 51.82274,7.88142 74.57644,20.61926 22.7537,12.73784 42.64466,30.15354 60.12594,49.50266 35.01366,38.7548 60.86291,85.87828 73.83585,136.47071 12.97293,50.59242 12.95308,104.57682 -0.94598,154.92269 C 613.8518,638.69155 585.04748,686.16874 545.875,722.625 l -0.75,-14.125 c 9.88178,-7.18589 15.80187,-19.5047 15.23896,-31.71002 -0.5629,-12.20533 -7.59171,-23.92694 -18.09296,-30.17278 -5.3405,-3.17637 -11.48987,-4.98 -17.69998,-5.19146 -6.21011,-0.21146 -12.46793,1.1697 -18.01212,3.97545 -5.54418,2.80574 -10.3631,7.03018 -13.87048,12.15936 -3.50739,5.12918 -5.69586,11.15234 -6.29918,17.33669 -3.83302,14.89203 -13.69488,28.13904 -26.86183,36.08234 -13.16695,7.9433 -29.4843,10.48958 -44.44537,6.93557 -13.13734,-3.12078 -25.12591,-10.87212 -33.36329,-21.5714 8.23533,-21.25652 15.96114,-42.71044 23.16856,-64.33712 3.08968,-9.27095 6.10079,-18.64838 7.22716,-28.35549 1.12637,-9.7071 0.26151,-19.86891 -4.09348,-28.61709 -4.9243,-9.8918 -14.31742,-17.44893 -25.0342,-20.14097 -10.71678,-2.69204 -22.56617,-0.47101 -31.58054,5.91942 -13.58873,-12.85487 -32.29123,-20.14765 -50.99503,-19.88479 -18.7038,0.26285 -37.19398,8.07833 -50.41609,21.30999 -9.47393,9.48077 -16.30753,21.82071 -18.13995,35.09786 -1.83242,13.27715 1.61219,27.42635 10.25317,37.67203 6.88937,8.16878 16.49208,13.45126 25.17253,19.6836 4.34023,3.11617 8.51292,6.52839 11.9538,10.61598 3.44088,4.08759 6.13779,8.89504 7.2161,14.12814 1.11544,5.41329 0.43315,11.18135 -1.9145,16.18499 -2.34765,5.00365 -6.34762,9.2151 -11.22378,11.8172 l -33.84375,-9.78125 C 210.94897,676.2853 185.40451,650.94951 163.80036,622.60597 152.76889,608.13325 142.76063,592.88076 133.875,577 l -54,24.375 c 7.636472,24.24763 19.043941,47.30361 33.6865,68.08482 32.66753,46.36285 81.7825,80.88237 136.46975,95.91518 l -18.01965,5.45379 C 196.6274,768.50667 161.97916,755.89064 133.38612,734.91752 104.79307,713.9444 82.352442,684.68551 69.509331,651.6327 54.32242,612.54792 52.670015,569.10836 59.514899,527.73917 c 8.438812,-51.00259 29.279509,-99.19872 54.000011,-144.60108 20.71078,-38.03799 45.31313,-75.61981 81.37423,-99.60775 37.28662,-24.80316 82.95222,-32.61297 127.01769,-40.59562 29.17874,-5.28585 58.29885,-10.8953 87.35318,-16.82698 3.73682,-0.33451 7.48823,-0.50606 11.23999,-0.51399 m -241.46875,168.1875 -30.10071,131.54164 c 6.91333,10.568 18.06289,18.27746 30.39119,21.01424 12.32829,2.73678 25.69267,0.46921 36.42827,-6.18088 11.96771,-7.41331 20.45167,-20.21347 22.6172,-34.12368 2.16553,-13.9102 -2.02579,-28.68364 -11.17355,-39.38419 l -44.5374,-72.30463 -3.625,-0.5625 m 267.3125,15.375 -39.65936,77.9622 c -3.34556,10.39943 -3.16297,21.89955 0.51103,32.18753 3.674,10.28798 10.81743,19.30227 19.99366,25.22997 12.93932,8.3586 29.5987,10.2967 44.41754,6.09024 14.81883,-4.20646 27.70869,-14.27079 36.26523,-27.08007 13.37044,-20.01576 15.91521,-46.80272 6.63085,-69.01082 -9.28437,-22.2081 -30.09372,-39.19568 -53.69435,-43.92955 -4.75867,-0.95451 -9.61115,-1.44077 -14.4646,-1.4495 m 14.84375,358.03125 0,0 M 331.25,863.40625 c 3.97615,7.41757 5.82449,15.96054 5.27012,24.35832 -0.55436,8.39779 -3.50966,16.62365 -8.42637,23.45418 L 330.5,862.0625 c 0.25759,0.44362 0.50764,0.89163 0.75,1.34375"
     id="path3083"
     inkscape:path-effect="#path-effect3140"
     inkscape:original-d="M 185.71875 -17 C 168.03381 67.318141 166.88552 154.91407 181.03125 239.84375 C 147.94764 262.99215 130.47466 302.17723 96.9375 324.8125 C 64.791565 305.84197 44.549048 273.06887 25.652001 241.98084 C 12.018708 217.31792 1.0494875 191.31294 -9.65625 165.28125 C -14.627384 178.39005 -7.0637146 191.7603 -6.9963098 205.02559 C 4.2671806 261.01738 35.824731 310.1279 50.797583 364.90245 C 54.937267 402.61779 37.072895 437.66712 22.568738 471.23962 C -14.560533 570.41415 9.8486632 691.53271 87.53125 764.75 C 118.8131 794.23144 159.6197 810.08761 199.22219 824.82901 C 238.21778 847.63742 265.21792 884.95074 293.38186 919.21585 C 308.11727 939.71771 321.65207 965.63225 314.45843 991.49134 C 303.71579 1026.1268 269.28345 1047.944 261.41737 1083.9349 C 257.41176 1098.8516 256.32718 1118.0165 268.84375 1129.2188 C 285.58705 1141.7255 312.51969 1132.1317 318.35194 1112.2599 C 337.75032 1078.9659 333.00311 1038.6777 344.375 1002.9375 C 353.27117 981.41202 374.54757 968.70556 395.34844 960.70319 C 419.65523 947.45515 437.22414 922.04212 439.08422 894.19424 C 442.32856 873.9009 447.47451 850.33359 467 839.5 C 491.15194 824.40305 520.04517 817.1717 541.17594 797.27534 C 584.99875 762.0687 621.05943 717.17227 646.48696 667.07259 C 683.08196 593.82547 694.51462 506.56105 669.9375 427.71875 C 651.35362 365.60258 614.21333 310.51316 569.625 264.0625 C 552.86257 241.48058 552.18796 210.35699 562.46823 184.91595 C 572.80707 147.12655 588.27049 110.44917 592.53125 71.21875 C 567.44595 118.11048 548.65984 168.2806 520.375 213.46875 C 480.58344 197.01542 434.71478 199.5593 397.14862 177.36269 C 393.8149 174.85535 389.87606 173.20068 386.59375 170.71875 C 390.72666 154.76014 380.70826 139.91972 378.54823 124.5197 C 376.26594 115.52288 366.90764 108.58826 369.28986 98.827159 C 370.94259 87.44144 362.20421 74.665538 349.875 76.09375 C 338.07914 77.054454 332.90524 89.54024 332.9375 99.9375 C 331.91693 107.28031 323.25857 109.72261 320.75184 116.48441 C 314.80689 127.69603 311.49355 140.15826 307.03125 151.96875 C 304.41205 162.68522 307.17998 174.14274 310.57368 183.9197 C 297.14745 204.16313 274.2085 220.01246 248.96875 218.5625 C 229.72947 220.20509 213.34826 202.65517 212.12557 184.19154 C 200.42944 140.80194 195.89651 95.892293 191.44847 51.300053 C 189.45541 26.843587 188.08478 2.3416837 186.71875 -22.15625 C 186.38542 -20.4375 186.05208 -18.71875 185.71875 -17 z M 352 39.71875 C 334.52741 40.081625 332.29722 70.337863 349.5024 73.339325 C 365.87044 77.09384 376.89727 50.070302 361.5 42.125 C 358.68794 40.342459 355.3071 39.584534 352 39.71875 z M 420.5 225.59375 C 473.18637 227.38911 520.24044 258.12273 555.20238 295.71567 C 628.16054 370.97604 659.20261 486.25796 628.09225 587.10907 C 613.61658 638.50244 586.5885 687.43178 545.875 722.625 C 537.51585 723.63818 538.10137 709.80832 545.125 708.5 C 561.33031 692.11753 562.37988 660.36566 542.271 646.6172 C 520.52015 633.65242 489.84998 650.53372 486.38924 674.89724 C 472.82143 701.27658 442.75017 713.07017 415.08204 717.91515 C 400.86348 720.42104 382.56868 712.40526 381.71875 696.34375 C 378.43815 672.30678 395.10924 652.38298 404.88731 632.00663 C 413.62894 614.86606 420.16667 592.18891 408.02099 575.03405 C 394.90047 558.098 370.84039 556.10916 351.40625 560.8125 C 317.66813 563.09202 282.80198 549.59897 249.99513 562.2377 C 222.56672 574.47715 219.38393 616.63174 242.10835 635.00759 C 257.65026 648.8206 279.5137 658.23515 286.45078 679.43531 C 290.43756 690.49339 284.84405 703.85642 273.3125 707.4375 C 261.18779 712.18381 248.30395 705.98881 239.46875 697.65625 C 210.90063 676.38291 183.37913 652.7251 163.80036 622.60597 C 153.24121 607.80832 144.38672 591.725 133.875 577 C 114.74318 561.38616 79.581961 575.78589 79.875 601.375 C 78.36994 628.28051 96.879881 650.44344 113.5615 669.45982 C 150.88303 711.48046 199.30276 742.06342 250.03125 765.375 C 248.93695 773.94369 237.87131 770.49955 232.0116 770.82879 C 160.4466 768.17398 94.822583 717.99268 69.509331 651.6327 C 54.49835 612.31405 54.067915 568.98768 59.514899 527.73917 C 66.893377 476.3188 87.498152 427.76087 113.51491 383.13809 C 133.40096 345.10907 156.32164 305.27776 194.88914 283.53034 C 234.06021 261.74265 278.35057 251.73557 321.90683 242.93472 C 351.12009 237.83999 380.09155 231.31172 409.26001 226.10774 C 412.99733 225.78866 416.74787 225.56958 420.5 225.59375 z M 179.03125 393.78125 C 130.72665 414.91144 115.06236 485.211 148.93054 525.32289 C 163.50881 545.25612 194.41489 555.30617 215.75 540.15625 C 237.70024 523.12423 239.73549 489.92659 227.19365 466.64838 C 217.95175 439.94838 207.80812 410.1939 182.65625 394.34375 C 181.49474 393.92959 180.26984 393.66024 179.03125 393.78125 z M 446.34375 409.15625 C 412.15215 414.25897 392.28714 456.59363 406.68439 487.11845 C 412.65757 506.3815 410.41867 530.28244 427.18908 544.53595 C 452.97576 564.34661 493.57261 551.42689 507.87185 523.54612 C 530.74311 482.40284 506.86825 422.56091 460.80835 410.60575 C 456.08 409.48528 451.2045 408.91532 446.34375 409.15625 z M 461.1875 767.1875 C 460.47349 767.49555 460.81514 767.15047 461.1875 767.1875 z M 331.25 863.40625 C 340.29373 877.89463 339.08367 898.0835 328.09375 911.21875 C 327.72074 894.8545 325.28086 877.94997 330.5 862.0625 C 330.75 862.51042 331 862.95833 331.25 863.40625 z "
     inkscape:connector-curvature="0"
     sodipodi:nodetypes="cccccccccccccccccccccccccccccccccccccccccccccccccccccccccccccccccccccccccccccccc" />
</svg>
