<?xml version="1.0" encoding="UTF-8" standalone="no"?>
<!-- Created with Inkscape (http://www.inkscape.org/) -->

<svg
   xmlns:dc="http://purl.org/dc/elements/1.1/"
   xmlns:cc="http://creativecommons.org/ns#"
   xmlns:rdf="http://www.w3.org/1999/02/22-rdf-syntax-ns#"
   xmlns:svg="http://www.w3.org/2000/svg"
   xmlns="http://www.w3.org/2000/svg"
   xmlns:sodipodi="http://sodipodi.sourceforge.net/DTD/sodipodi-0.dtd"
   xmlns:inkscape="http://www.inkscape.org/namespaces/inkscape"
   id="svg3039"
   version="1.1"
   inkscape:version="0.48.4 r9939"
   width="659"
   height="1105"
   sodipodi:docname="gegner.svg"
   inkscape:export-filename="C:\Users\soerensen\Desktop\ludum dare\img\gegner.png"
   inkscape:export-xdpi="13.66"
   inkscape:export-ydpi="13.66">
  <metadata
     id="metadata3045">
    <rdf:RDF>
      <cc:Work
         rdf:about="">
        <dc:format>image/svg+xml</dc:format>
        <dc:type
           rdf:resource="http://purl.org/dc/dcmitype/StillImage" />
        <dc:title></dc:title>
      </cc:Work>
    </rdf:RDF>
  </metadata>
  <defs
     id="defs3043">
    <inkscape:path-effect
       effect="spiro"
       id="path-effect3140"
       is_visible="true" />
    <inkscape:path-effect
       effect="bend_path"
       id="path-effect3138"
       is_visible="true"
       bendpath="M 40.030308,535.35474 C 155.312,662.01981 352.37098,464.6204 604.95339,455.75728"
       prop_scale="1"
       scale_y_rel="false"
       vertical="false"
       bendpath-nodetypes="cc" />
    <inkscape:path-effect
       effect="rough_hatches"
       id="path-effect3136"
       is_visible="true"
       direction="329.51515,530.35474 , 144.74242,0"
       dist_rdm="74.9;1"
       growth="0"
       do_bend="true"
       bender="329.51515,535.35474 , 5,0"
       bottom_edge_variation="101.49757;-1817563905"
       top_edge_variation="101.49757;-2022967526"
       bottom_tgt_variation="0;2000763733"
       top_tgt_variation="0;-979742394"
       scale_bf="1"
       scale_bb="1"
       scale_tf="1"
       scale_tb="1"
       top_smth_variation="0;1"
       bottom_smth_variation="0;1"
       fat_output="true"
       stroke_width_top="1"
       stroke_width_bottom="1"
       front_thickness="1"
       back_thickness="0.25" />
  </defs>
  <sodipodi:namedview
     pagecolor="#ffffff"
     bordercolor="#666666"
     borderopacity="1"
     objecttolerance="10"
     gridtolerance="10"
     guidetolerance="10"
     inkscape:pageopacity="0"
     inkscape:pageshadow="2"
     inkscape:window-width="1280"
     inkscape:window-height="962"
     id="namedview3041"
     showgrid="false"
     inkscape:zoom="0.42714931"
     inkscape:cx="653.80432"
     inkscape:cy="568.63899"
     inkscape:window-x="-8"
     inkscape:window-y="-8"
     inkscape:window-maximized="1"
     inkscape:current-layer="svg3039" />
  <path
     style="fill:#000000"
     d="m 368.22197,318.86601 23.98723,88.40545 37.09455,-19.73904 20.3705,1.63244 58.46631,8.4849 c 12.04699,-21.13885 23.79719,-42.44684 35.24596,-63.91558 2.02284,-3.79323 4.03627,-7.59148 6.04027,-11.3947 l -28.35071,85.86618 50.45328,76.99803 c 7.75668,72.86895 -21.84533,148.73186 -76.90513,197.08957 -7.31403,6.42374 -15.03654,12.38234 -23.10537,17.82784 10.25334,51.30113 18.15854,103.0715 23.68257,155.09478 3.38861,31.91265 5.88219,63.9321 6.82771,96.01022 0.58028,19.68686 0.57728,39.39091 -0.009,59.0776 4.38004,-2.8997 10.22255,-3.4496 15.0667,-1.418 4.84415,2.0316 8.5466,6.5845 9.5479,11.7411 0.7921,4.0792 -0.0797,8.4566 -2.37414,11.9211 -2.29447,3.4645 -5.98458,5.9754 -10.04949,6.8379 -4.06491,0.8626 -8.4567,0.067 -11.9604,-2.1675 -3.5037,-2.2342 -6.07801,-5.8803 -7.01076,-9.9297 -12.4042,-1.8387 -24.42075,-6.2526 -35.06583,-12.8804 -16.17953,-10.0736 -29.08516,-25.31675 -36.35202,-42.93626 -7.26686,-17.61951 -8.85918,-37.52865 -4.48517,-56.07919 l 0.0568,81.2067 17.06899,30.81615 -20.92638,15.2183 -54.68143,-12.4881 -127.9356,-17.4853 2.22072,-19.29417 40.05909,-3.72789 82.0969,0.3097 c -18.25669,-44.50965 -25.62805,-93.43889 -21.29514,-141.35175 3.09776,-34.25476 12.1223,-67.96565 26.55266,-99.18663 l 13.85675,-59.24671 -24.63923,-10.21624 c -31.37071,-20.58129 -53.96507,-54.09994 -61.27451,-90.90052 -6.89444,-34.71119 -0.17992,-71.94117 18.40622,-102.05687 l -7.40874,-43.01068 -30.66545,-70.27731 57.20257,79.50055 28.03946,-26.60575 21.67841,-13.62351 -11.40815,-99.90381 1.88101,5.7971 9e-5,0 m 68.24728,3.9486 -0.69409,0.34044 0.69409,-0.34044 m -171.79675,37.21681 0,0 m 170.09974,-20.52226 0,0 m 0.50319,14.43354 -3.51849,2.22382 3.51849,-2.22382 m 0.26092,14.64522 -5.1581,9.19056 5.1581,-9.19056 m 12.68256,39.21336 c -37.33164,7.86491 -72.67864,27.01149 -97.44613,56.0301 -29.1291,34.12885 -42.24981,81.3745 -34.89086,125.63655 l 49.11248,60.77845 35.41105,4.4533 -75.26285,-76.83129 20.84677,-27.56447 26.23449,39.22811 24.87317,22.38392 14.16523,-7.84417 -19.45074,-40.9809 11.84516,-24.17023 46.8491,4.28023 1.02263,32.63537 -1.14588,46.45749 20.5146,-7.15623 20.47489,-16.74367 24.86395,-11.07606 1.76475,32.77235 -4.26781,12.49491 c 19.92424,-18.59882 34.44457,-42.92071 41.36303,-69.28406 5.92591,-22.58118 6.28732,-46.66994 0.502,-69.28755 -5.78532,-22.61761 -17.76443,-43.69338 -34.62317,-59.84296 C 506.264,420.0785 487.92151,409.8098 468.21824,404.6357 c -6.71419,0.71658 -13.39204,1.77358 -19.99933,3.16558 m -75.13486,82.05826 20.99141,43.53765 -39.98678,-21.71952 18.99537,-21.81813 m 90.35503,0.33137 c 5.67961,-1.46037 11.83797,-0.98732 17.22792,1.32334 5.38995,2.31066 9.97876,6.44491 12.83713,11.5655 2.85836,5.12059 3.96893,11.19643 3.1068,16.99707 -0.86213,5.80064 -3.69173,11.29086 -7.91577,15.35881 -3.97955,3.8325 -9.17146,6.38704 -14.63607,7.20126 -5.46461,0.81423 -11.17572,-0.11574 -16.09969,-2.62162 -4.92397,-2.50587 -9.0372,-6.57562 -11.59526,-11.47269 -2.55806,-4.89707 -3.54867,-10.59797 -2.79256,-16.07092 0.7222,-5.2275 3.03087,-10.22518 6.54297,-14.16389 3.51211,-3.93871 8.21362,-6.80272 13.32453,-8.11686 m 17.27541,157.62816 0.6133,0.0284 -0.6133,-0.0284 m -50.05209,12.06416 1.87486,-0.0501 -1.87486,0.0501 m -9.35534,43.00739 c -1.8154,3.09508 -2.57074,6.79915 -2.11219,10.35793 0.45855,3.55878 2.12815,6.95041 4.66883,9.48421 l -0.75802,-22.33673 c -0.67611,0.77258 -1.2792,1.60903 -1.79862,2.49459"
     id="path3083"
     inkscape:path-effect="#path-effect3140"
     inkscape:original-d="m 368.22197,318.86601 c 9.25858,29.11037 16.58099,58.78408 23.98723,88.40545 11.57674,-7.94888 30.09945,-5.52739 37.09455,-19.73904 5.48064,-6.88227 14.45036,-1.02893 20.3705,1.63244 19.89268,-2.35776 39.46406,3.35057 58.46631,8.4849 14.59564,-19.61467 23.18498,-42.79378 35.24596,-63.91558 1.78995,-3.53939 4.71357,-9.51109 6.04027,-11.3947 -9.43069,28.62846 -19.25993,57.12637 -28.35071,85.86618 16.99558,25.43579 44.19788,45.52803 50.45328,76.99803 24.00039,72.62077 -8.54154,161.06575 -76.90513,197.08957 -8.34492,4.45729 -21.50808,6.83512 -23.10537,17.82784 5.44033,52.0493 14.50236,103.60558 23.68257,155.09478 5.56021,31.67171 8.46353,63.85112 6.82771,96.01022 -0.34469,19.68882 -0.89707,39.39478 -0.009,59.0776 8.84451,-3.9339 24.81014,-1.981 24.6146,10.3231 -0.9004,14.7829 -24.52623,19.751 -31.39479,6.6618 -12.59216,8.3884 -29.94794,0.4515 -35.06583,-12.8804 -12.55246,-33.40086 -29.74001,-65.00996 -40.83719,-99.01545 -5.41207,26.59924 -11.32649,55.26534 0.0568,81.2067 3.77599,11.17835 11.26774,20.70615 17.06899,30.81615 1.69944,10.8897 -11.10036,20.469 -20.92638,15.2183 -18.76754,-1.689 -35.91298,-10.7736 -54.68143,-12.4881 -42.37523,-7.3144 -86.21954,-6.3866 -127.9356,-17.4853 -8.17315,-3.9915 -5.6094,-16.42433 2.22072,-19.29417 12.36331,-6.47528 26.77894,-2.11779 40.05909,-3.72789 27.35263,-0.74737 54.8165,-2.51461 82.0969,0.3097 -23.64722,-42.86751 -25.2557,-93.69218 -21.29514,-141.35175 2.57125,-34.3213 10.14856,-68.71773 26.55266,-99.18663 8.32488,-18.42893 17.21096,-38.60853 13.85675,-59.24671 -6.02205,-7.36687 -17.87985,-3.4542 -24.63923,-10.21624 -32.8631,-19.16444 -51.61204,-55.2696 -61.27451,-90.90052 -7.5238,-34.97379 4.2113,-70.38625 18.40622,-102.05687 5.36272,-14.5637 0.92988,-30.53577 -7.40874,-43.01068 -12.11322,-22.51319 -23.91211,-45.49781 -30.66545,-70.27731 20.21598,25.67107 35.18449,55.20492 57.20257,79.50055 11.03073,-7.02043 16.62102,-19.98545 28.03946,-26.60575 6.43826,-5.57354 15.37268,-8.88758 21.67841,-13.62351 -6.70801,-32.92809 -6.49918,-66.7298 -11.40815,-99.90381 0.627,1.93237 1.25401,3.86474 1.88101,5.7971 z m 68.24728,3.9486 c 3.50647,1.73834 -4.23253,3.59423 -0.69409,0.34044 0.14132,-0.223 0.42969,-0.37169 0.69409,-0.34044 z M 264.6725,360.03142 c 1.66721,1.02994 -2.17759,-0.83414 0,0 z m 170.09974,-20.52226 c 4.9647,1.40356 -2.87652,0.3982 0,0 z m 0.50319,14.43354 c 7.17531,2.41076 -6.52938,10.15412 -3.51849,2.22382 0.72481,-1.24254 2.10241,-2.06423 3.51849,-2.22382 z m 0.26092,14.64522 c 8.34257,1.16374 -0.29266,15.99197 -5.1581,9.19056 -1.83088,-3.70919 0.58374,-9.45677 5.1581,-9.19056 z m 12.68256,39.21336 c -36.31634,9.8374 -74.6275,24.35528 -97.44613,56.0301 -26.2294,35.5824 -43.12732,81.15262 -34.89086,125.63655 9.00825,24.60227 23.07754,51.17412 49.11248,60.77845 11.55946,2.95007 23.48809,4.36192 35.41105,4.4533 -30.13757,-19.48947 -61.36194,-42.46333 -75.26285,-76.83129 -2.88221,-12.501 6.53264,-29.83378 20.84677,-27.56447 16.42333,6.43777 16.62597,26.82177 26.23449,39.22811 7.43836,8.39615 18.0676,13.37182 24.87317,22.38392 5.93925,4.64066 14.26707,-0.72101 14.16523,-7.84417 1.58646,-16.58126 -16.92439,-25.4602 -19.45074,-40.9809 -3.02402,-9.84702 2.76205,-20.03993 11.84516,-24.17023 14.3829,-7.95082 34.63501,-7.29347 46.8491,4.28023 7.7961,9.32753 5.49408,22.42063 1.02263,32.63537 -4.07593,14.9114 -8.75257,31.84611 -1.14588,46.45749 8.17142,3.71084 12.28269,-8.93605 20.5146,-7.15623 9.3215,-0.60694 21.08388,-5.69647 20.47489,-16.74367 1.91181,-10.73154 15.64902,-19.06715 24.86395,-11.07606 10.82179,7.44803 9.59753,23.58625 1.76475,32.77235 -2.02208,3.51818 -6.03258,9.43859 -4.26781,12.49491 22.81873,-15.967 34.7166,-43.07048 41.36303,-69.28406 10.62803,-45.12368 -1.10751,-95.84357 -34.12117,-129.13051 -14.18831,-14.41918 -32.16125,-27.34671 -52.75653,-29.53477 -6.81649,-0.20294 -13.50865,1.1991 -19.99933,3.16558 z m -75.13486,82.05826 c 22.18067,-4.51934 38.67964,29.08072 20.99141,43.53765 -14.4684,15.64748 -45.96808,-0.68422 -39.98678,-21.71952 1.19153,-10.07616 8.36194,-20.41573 18.99537,-21.81813 z m 90.35503,0.33137 c 23.04884,-4.82758 41.53453,28.16664 25.25608,45.24472 -15.91991,16.93285 -49.54655,-0.073 -45.12358,-22.96397 1.09697,-10.51566 9.08271,-20.66522 19.8675,-22.28075 z m 17.27541,157.62816 c -1.87063,3.72607 5.67057,-1.2321 0.6133,0.0284 -0.20643,0.0339 -0.41231,-0.11266 -0.6133,-0.0284 z m -50.05209,12.06416 c 1.43446,1.06819 6.17535,-0.47994 1.87486,-0.0501 -0.61141,0.004 -1.29087,-0.12006 -1.87486,0.0501 z m -9.35534,43.00739 c 0.80716,6.62 2.21834,13.16921 2.55664,19.84214 1.2477,-7.08425 4.41356,-16.42056 -0.75802,-22.33673 -2.66969,-1.31333 -2.1306,0.39311 -1.79862,2.49459 z"
     inkscape:connector-curvature="0" />
</svg>
