<?xml version="1.0" encoding="UTF-8" standalone="no"?>
<!-- Created with Inkscape (http://www.inkscape.org/) -->

<svg
   xmlns:dc="http://purl.org/dc/elements/1.1/"
   xmlns:cc="http://creativecommons.org/ns#"
   xmlns:rdf="http://www.w3.org/1999/02/22-rdf-syntax-ns#"
   xmlns:svg="http://www.w3.org/2000/svg"
   xmlns="http://www.w3.org/2000/svg"
   xmlns:sodipodi="http://sodipodi.sourceforge.net/DTD/sodipodi-0.dtd"
   xmlns:inkscape="http://www.inkscape.org/namespaces/inkscape"
   id="svg3039"
   version="1.1"
   inkscape:version="0.48.4 r9939"
   width="659"
   height="1105"
   sodipodi:docname="gegner3.svg"
   inkscape:export-filename="C:\Users\soerensen\Desktop\ludum dare\img\gegner_2.png"
   inkscape:export-xdpi="13.66"
   inkscape:export-ydpi="13.66">
  <metadata
     id="metadata3045">
    <rdf:RDF>
      <cc:Work
         rdf:about="">
        <dc:format>image/svg+xml</dc:format>
        <dc:type
           rdf:resource="http://purl.org/dc/dcmitype/StillImage" />
        <dc:title></dc:title>
      </cc:Work>
    </rdf:RDF>
  </metadata>
  <defs
     id="defs3043">
    <inkscape:path-effect
       effect="bend_path"
       id="path-effect3033"
       is_visible="true"
       bendpath="M -64.320591,913.90561 C 122.63446,532.36891 404.9843,320.85385 656.49982,940.39215"
       prop_scale="1"
       scale_y_rel="false"
       vertical="false"
       bendpath-nodetypes="cc" />
    <inkscape:path-effect
       effect="sketch"
       id="path-effect3015"
       is_visible="true"
       nbiter_approxstrokes="5"
       strokelength="100"
       strokelength_rdm="0.3;916435997"
       strokeoverlap="0.3"
       strokeoverlap_rdm="0.3;1"
       ends_tolerance="0.1;1"
       parallel_offset="5;-1018252551"
       tremble_size="5;1"
       tremble_frequency="1"
       nbtangents="5"
       tgt_places_rdmness="1;1"
       tgtscale="10"
       tgtlength="100"
       tgtlength_rdm="0.3;1" />
    <inkscape:path-effect
       effect="skeletal"
       id="path-effect3013"
       is_visible="true"
       pattern="M 0,0 1,0"
       copytype="single_stretched"
       prop_scale="1"
       scale_y_rel="false"
       spacing="0"
       normal_offset="0"
       tang_offset="0"
       prop_units="false"
       vertical_pattern="false"
       fuse_tolerance="0" />
    <inkscape:path-effect
       effect="skeletal"
       id="path-effect3009"
       is_visible="true"
       pattern="M 0,0 1,0"
       copytype="single_stretched"
       prop_scale="1"
       scale_y_rel="false"
       spacing="0"
       normal_offset="0"
       tang_offset="0"
       prop_units="false"
       vertical_pattern="false"
       fuse_tolerance="0" />
    <inkscape:path-effect
       effect="ruler"
       id="path-effect3007"
       is_visible="true"
       unit="px"
       mark_distance="20"
       mark_length="14"
       minor_mark_length="7"
       major_mark_steps="5"
       shift="0"
       offset="0"
       mark_dir="left"
       border_marks="both" />
    <inkscape:path-effect
       effect="construct_grid"
       id="path-effect3005"
       is_visible="true"
       nr_x="5"
       nr_y="5" />
    <inkscape:path-effect
       effect="gears"
       id="path-effect3003"
       is_visible="true"
       teeth="10"
       phi="5" />
    <inkscape:path-effect
       effect="vonkoch"
       id="path-effect3001"
       is_visible="true"
       ref_path="m -11.347506,556.33728 694.333866,0"
       generator="m -11.347506,1134.8308 231.444626,0 m 231.44462,0 231.44462,0"
       similar_only="false"
       nbgenerations="1"
       drawall="true"
       maxComplexity="1000" />
    <inkscape:path-effect
       effect="knot"
       id="path-effect2999"
       is_visible="true"
       interruption_width="4.2"
       prop_to_stroke_width="true"
       add_stroke_width="true"
       add_other_stroke_width="true"
       switcher_size="15"
       crossing_points_vector="" />
    <inkscape:path-effect
       effect="envelope"
       id="path-effect2997"
       is_visible="true"
       yy="true"
       xx="true"
       bendpath1="M -713.24089,-386.34621 802.1758,-1094.8612"
       bendpath2="M 974.33833,-181.07551 1086.9061,1505.6424"
       bendpath3="m -11.347506,1134.8308 694.333866,0"
       bendpath4="m -11.347506,-22.15625 0,1156.98705"
       bendpath1-nodetypes="cc"
       bendpath2-nodetypes="cc" />
    <inkscape:path-effect
       effect="rough_hatches"
       id="path-effect2995"
       is_visible="true"
       direction="335.81943,551.33728 , 173.58347,0"
       dist_rdm="75;1"
       growth="0"
       do_bend="true"
       bender="335.81943,556.33728 , 5,0"
       bottom_edge_variation="115.69871;1"
       top_edge_variation="115.69871;1"
       bottom_tgt_variation="0;1"
       top_tgt_variation="0;1"
       scale_bf="1"
       scale_bb="1"
       scale_tf="1"
       scale_tb="1"
       top_smth_variation="0;1"
       bottom_smth_variation="0;1"
       fat_output="true"
       stroke_width_top="1"
       stroke_width_bottom="1"
       front_thickness="1"
       back_thickness="0.25" />
    <inkscape:path-effect
       effect="spiro"
       id="path-effect3140"
       is_visible="false" />
    <inkscape:path-effect
       effect="bend_path"
       id="path-effect3138"
       is_visible="true"
       bendpath="M 40.030308,535.35474 C 155.312,662.01981 352.37098,464.6204 604.95339,455.75728"
       prop_scale="1"
       scale_y_rel="false"
       vertical="false"
       bendpath-nodetypes="cc" />
    <inkscape:path-effect
       effect="rough_hatches"
       id="path-effect3136"
       is_visible="true"
       direction="329.51515,530.35474 , 144.74242,0"
       dist_rdm="74.9;1"
       growth="0"
       do_bend="true"
       bender="329.51515,535.35474 , 5,0"
       bottom_edge_variation="101.49757;-1817563905"
       top_edge_variation="101.49757;-2022967526"
       bottom_tgt_variation="0;2000763733"
       top_tgt_variation="0;-979742394"
       scale_bf="1"
       scale_bb="1"
       scale_tf="1"
       scale_tb="1"
       top_smth_variation="0;1"
       bottom_smth_variation="0;1"
       fat_output="true"
       stroke_width_top="1"
       stroke_width_bottom="1"
       front_thickness="1"
       back_thickness="0.25" />
  </defs>
  <sodipodi:namedview
     pagecolor="#ffffff"
     bordercolor="#666666"
     borderopacity="1"
     objecttolerance="10"
     gridtolerance="10"
     guidetolerance="10"
     inkscape:pageopacity="0"
     inkscape:pageshadow="2"
     inkscape:window-width="1280"
     inkscape:window-height="962"
     id="namedview3041"
     showgrid="false"
     inkscape:zoom="0.15102009"
     inkscape:cx="51.628822"
     inkscape:cy="558.45226"
     inkscape:window-x="-8"
     inkscape:window-y="-8"
     inkscape:window-maximized="1"
     inkscape:current-layer="svg3039" />
  <path
     style="fill:#000000"
     d="m -309.98877,259.11707 c 4.61813,19.54846 11.40899,37.29419 19.77262,53.48086 8.36362,16.18667 18.30431,30.81386 29.44426,44.08315 16.63593,19.8674 36.02169,36.71302 57.48571,51.07781 21.92479,14.68944 46.01261,26.75099 71.9795,36.74555 -3.30068,6.73133 -6.09755,13.27866 -8.49071,19.66618 0,0 0,0 0,1e-5 -6.2004,15.9406 -10.29776,30.97725 -13.32703,45.50672 -3.02928,14.52947 -4.98738,28.554 -6.7408,42.47697 -1.75341,13.92298 -3.30055,27.74448 -5.37408,41.85863 -2.07353,14.11416 -4.67324,28.52057 -8.41119,43.60828 -6.15727,5.10654 -12.22193,9.82807 -18.21478,14.21186 0,0 0,10e-6 -1e-5,10e-6 -21.32641,15.54622 -42.1594,27.10255 -62.64959,36.66692 -20.49019,9.56437 -40.61834,17.13262 -60.15478,24.70613 -17.07031,5.70757 -33.78384,10.34557 -50.30082,14.44402 -16.51698,4.09844 -32.83651,7.65803 -49.07673,11.23801 3.76368,7.22336 10.27115,8.98862 17.30725,9.71134 7.03611,0.72271 14.61698,0.39891 20.59001,3.28366 14.91993,1.39222 30.50531,0.52014 46.47387,-1.46369 15.96855,-1.98382 32.32382,-5.07969 48.75519,-8.18398 16.43137,-3.10429 32.93855,-6.21506 49.15855,-8.29161 16.21999,-2.07654 32.1489,-3.11642 47.40283,-2.17639 9.11054,3.06955 16.81843,8.24163 23.55802,14.80763 6.7396,6.566 12.51458,14.52655 17.75191,23.23062 5.23734,8.70407 9.93855,18.15256 14.48437,27.74011 4.54583,9.58755 8.93611,19.31483 13.4957,28.61027 14.46624,25.13062 33.61318,44.73021 55.680199,59.15796 22.06702,14.42775 47.073434,23.67951 73.672394,28.24765 26.59896,4.56814 54.795422,4.44451 83.465316,0.36025 28.669891,-4.08425 57.795531,-12.12845 86.564081,-23.09561 1.00944,-0.38423 2.01771,-0.77153 3.02474,-1.16183 18.15504,-7.03707 35.24638,-15.65537 51.42398,-24.2101 16.1776,-8.55472 31.45012,-17.03487 46.07499,-23.98392 8.72241,-3.96432 16.61515,-7.31685 23.67115,-9.7098 8.51576,-1.04883 16.33824,-0.0833 23.4175,2.59219 7.07926,2.67554 13.41355,7.05746 18.90374,12.86842 4.16601,4.77367 7.30063,10.31285 9.3029,16.5336 2.00227,6.22076 2.87296,13.12149 2.44043,20.63959 -0.46355,6.27967 -1.894,12.65962 -4.46392,19.07974 -1.79768,5.51978 -4.16394,11.37125 -6.78094,17.41425 -2.617,6.043 -5.48269,12.27739 -7.94303,18.53411 0,0 0,0 0,0 -2.97901,7.24201 -5.21584,14.39049 -5.51692,21.36224 -0.15054,3.48588 0.18795,6.92691 1.18203,10.28831 0.99409,3.3614 2.6446,6.64475 5.11525,9.77431 2.35813,2.70941 5.12657,5.22771 8.25197,7.54578 8.96936,6.71546 20.52477,12.01352 32.32161,16.39102 5.89841,2.1887 11.86138,4.1475 17.67479,5.9564 5.81341,1.8089 11.47685,3.4671 16.86024,5.0843 8.14862,2.5682 15.71597,5.4638 22.52281,9.0204 6.80683,3.5566 12.88248,7.7638 18.14861,13.016 2.95728,2.6295 5.85755,5.579 8.43188,8.7963 2.57433,3.2174 4.82861,6.7018 6.41302,10.4364 1.58442,3.7346 2.5081,7.7182 2.22774,11.9829 -0.28035,4.2647 -1.75308,8.8079 -5.31215,13.7366 -4.14773,4.968 -10.09837,9.6452 -17.52193,13.9312 -5.15224,2.9715 -11.02524,5.5461 -17.40428,7.6591 -6.37904,2.1131 -13.26327,3.765 -20.33773,4.9267 -7.07447,1.1617 -14.33706,1.8339 -21.39487,2.0159 -7.05781,0.182 -13.9076,-0.1255 -20.11886,-0.9058 -10.711,-1.4053 -19.12589,-4.4692 -23.87808,-8.6138 -7.02123,-2.8828 -13.03046,-6.1654 -18.20002,-9.6756 -5.16955,-3.5103 -9.50031,-7.2503 -13.17938,-11.1167 -7.35812,-7.7327 -12.1196,-15.9506 -15.77319,-24.2793 -3.65359,-8.3286 -6.21042,-16.7862 -8.93643,-25.2409 -2.72601,-8.4546 -5.61775,-16.9056 -9.66133,-25.3434 0,0 0,0 0,0 -1.95383,-4.1393 -4.1365,-8.27893 -6.5988,-12.43057 -5.75213,-7.36271 -13.63374,-14.28362 -22.0425,-21.14968 -8.40876,-6.86606 -17.34191,-13.68857 -25.81748,-20.77492 0,0 0,0 0,-10e-6 -4.94422,-4.33408 -9.50546,-8.3898 -13.52651,-12.16333 -4.02106,-3.77353 -7.50251,-7.26572 -10.38535,-10.4971 -2.54345,-3.72855 -4.10109,-7.52197 -4.82088,-11.34001 0,0 0,0 0,0 -0.83154,-4.93567 -0.45537,-9.57639 0.8449,-14.02573 1.30027,-4.44934 3.52051,-8.70883 6.3322,-12.89591 2.8117,-4.18708 6.21133,-8.30302 9.88335,-12.45839 3.67203,-4.15536 7.61394,-8.35144 11.56876,-12.67315 3.08155,-3.27818 6.31811,-6.63555 9.64879,-9.89668 3.33069,-3.26113 6.75501,-6.42627 10.25459,-9.28609 4.52859,-3.54198 9.14684,-6.5889 13.78577,-8.62584 4.63892,-2.03695 9.30053,-3.06389 13.89975,-2.46101 5.41816,0.38441 10.83941,1.80306 16.39821,3.92855 5.5588,2.12549 11.25625,4.95668 17.23768,8.10236 11.96285,6.29134 25.0991,13.87023 40.35757,19.08801 2.006,0.85686 4.02809,1.72144 6.06537,2.59232 27.93431,12.20048 56.72019,24.57587 85.95434,35.55427 29.23414,10.97839 58.89979,20.54364 88.34741,27.30859 22.20935,4.92617 44.36539,7.9629 66.02513,8.62029 21.65974,0.65739 42.82381,-1.06218 63.03361,-5.56444 20.20981,-4.50225 39.47012,-11.78226 57.26677,-22.218 17.79666,-10.43573 34.13887,-24.02188 48.35203,-41.18818 11.3241,-13.22122 21.37556,-28.24973 30.06633,-44.9447 8.69077,-16.69496 16.01982,-35.05724 21.85148,-54.93809 5.83166,-19.88085 10.16398,-41.28154 12.83612,-64.02919 2.67215,-22.74765 3.6815,-46.8435 2.87641,-72.07144 0.81367,-10.10886 2.9462,-18.81773 6.24221,-26.09681 3.29601,-7.27907 7.75584,-13.12709 13.17995,-17.50306 5.42412,-4.37596 11.81259,-7.27854 18.91854,-8.67549 7.10595,-1.39694 14.92913,-1.28716 23.17656,0.33448 21.87909,0.22631 44.93763,3.37163 67.38121,5.34641 22.44358,1.97477 44.29077,2.7772 63.89047,-2.05378 -22.6567,-9.34505 -45.0594,-16.81917 -67.44477,-23.67214 -22.38536,-6.85297 -44.75613,-13.09108 -67.50756,-19.92792 -21.84159,-6.6776 -44.57197,-14.20619 -68.85185,-23.59859 -11.28891,-25.4424 -26.9073,-51.81096 -45.87113,-78.74926 -18.96383,-26.93829 -41.263,-54.42139 -65.58329,-82.26766 -13.56315,-15.20568 -28.52749,-30.44656 -44.62317,-45.68873 -16.09567,-15.24217 -33.32152,-30.48485 -51.3745,-45.7674 -9.14445,-7.74481 -18.60477,-15.34658 -28.3287,-22.82284 -5.20998,-4.3413 -11.22812,-8.74262 -17.42293,-13.06284 -6.1948,-4.32023 -12.56606,-8.55911 -18.38959,-12.63574 5.69853,-1.74915 7.99237,-4.98497 8.12728,-9.20612 0.1349,-4.22115 -1.9118,-9.41523 -4.92698,-14.96165 -3.01519,-5.54642 -7.00861,-11.44002 -10.55398,-17.07278 -3.54536,-5.63276 -6.63691,-11.00788 -7.60315,-15.5464 -1.67316,-3.06155 -5.34999,-6.77789 -9.85272,-10.68763 -4.50272,-3.90974 -9.83693,-8.00924 -14.67072,-11.87692 -5.05071,-3.97394 -9.53073,-7.65873 -11.81798,-10.70743 -2.28725,-3.0487 -2.37043,-5.48428 1.40193,-6.86827 2.93063,-2.04432 2.67967,-5.22275 -0.43523,-9.12534 -3.1149,-3.90258 -9.10293,-8.52176 -17.6902,-13.240311 -8.58727,-4.718553 -19.7813,-9.5288 -33.22615,-13.720308 -13.44485,-4.191507 -29.14572,-7.756638 -46.5685,-10.00726 -19.44615,-2.631368 -36.21706,-3.063201 -49.99895,-2.256112 -16.73339,1.14455 -28.68552,4.096927 -36.42709,7.552666 -7.74156,3.455738 -11.2874,7.424527 -11.22994,11.105212 -1.41526,1.832285 -5.4556,3.352385 -10.8749,4.797202 -5.4193,1.444816 -12.2174,2.824543 -19.19239,4.321511 -6.97499,1.49697 -14.12659,3.11276 -20.30053,4.88717 -6.17393,1.77442 -11.37024,3.70056 -14.48444,5.71599 -10.18413,4.85534 -18.50435,9.92759 -25.83195,15.07237 -7.32761,5.14479 -13.66215,10.3671 -19.78906,15.66632 -5.75354,5.05523 -11.2789,10.14278 -17.16302,15.33603 -2.48087,3.29175 -3.32893,6.28512 -2.97895,9.00871 0.34999,2.72359 1.90024,5.17961 4.2727,7.42676 4.74491,4.4943 12.773,8.17275 21.3391,11.47155 -15.97901,8.93812 -34.28803,18.64682 -53.55326,29.22966 -19.26523,10.58285 -39.48342,22.04449 -59.648346,34.38411 -15.58597,9.54473 -31.22942,19.22337 -46.661419,28.89564 -15.431998,9.67227 -30.654732,19.33797 -45.5153631,28.83559 -1.5784949,1.11129 -3.1460758,2.20527 -4.7022288,3.28182 -2.4e-6,0 -4.8e-6,0 -7.3e-6,10e-6 -11.7316648,8.25859 -23.1228928,15.34336 -33.8707048,21.20512 -10.747811,5.86175 -20.85425,10.49941 -29.993215,13.79703 -9.138965,3.29761 -17.313638,5.25417 -24.136972,5.70318 -6.823334,0.449 -12.300884,-0.61033 -15.920094,-3.38177 -13.53997,-2.54591 -26.24159,-5.79842 -38.33738,-9.61576 -12.09579,-3.81735 -23.58468,-8.19885 -34.67816,-12.96365 -22.18695,-9.52961 -42.78734,-20.62008 -63.44569,-31.45315 -21.71156,-12.84544 -42.30853,-26.8101 -63.01208,-40.62115 0.51896,1.95191 1.04453,3.89987 1.57666,5.84387 z M 422.57313,41.906521 c -14.01906,-2.299291 -26.66952,-3.39186 -37.66219,-3.647523 -10.99266,-0.255664 -20.32838,0.324098 -27.81994,1.41679 -7.13379,1.110824 -12.53114,2.676118 -16.18409,4.462833 -3.65296,1.786715 -5.56291,3.794431 -5.72446,5.860608 -0.16155,2.066177 1.42396,4.190454 4.77968,6.286486 3.35572,2.096031 8.48032,4.16332 15.43468,6.197944 5.62594,1.705469 12.40464,3.396674 20.32147,5.105077 7.91683,1.708402 16.97158,3.433695 27.15184,5.246379 23.05374,4.333086 43.83081,7.599115 61.1125,9.572663 17.28168,1.973548 31.07982,2.624612 39.78968,1.477819 4.35493,-0.573396 7.43071,-1.597733 8.97442,-3.105976 1.54372,-1.508243 1.55589,-3.502865 -0.26126,-5.958632 -1.81715,-2.455768 -5.46325,-5.375656 -11.28779,-8.635291 -5.82455,-3.259635 -13.8276,-6.862363 -24.41299,-10.537091 -7.69242,-2.84522 -16.3587,-5.513781 -25.55082,-7.846779 -9.19212,-2.332998 -18.90987,-4.329253 -28.66073,-5.895307 z M 632.45695,331.20789 c 22.20566,16.92263 41.12374,34.45682 56.92709,52.09526 10e-6,10e-6 10e-6,10e-6 2e-5,2e-5 17.71792,20.17205 32.76083,40.35839 45.36157,60.162 12.60075,19.80361 22.76289,39.22627 30.82276,57.99793 8.05986,18.77167 14.02065,36.89418 18.27122,54.19714 4.25057,17.30296 6.79357,33.78819 8.02633,49.35739 0.68044,7.3114 1.13004,14.45723 1.36965,21.42515 2.1055,40.85533 -2.94779,76.97156 -12.98721,108.00277 -10.03941,31.03122 -25.06183,57.00058 -43.46438,77.76846 -18.40254,20.76788 -40.19532,36.33359 -64.28386,46.59496 -24.08854,10.26138 -50.48392,15.19587 -78.42617,14.91699 -28.0289,0.68297 -57.37624,-2.72145 -86.86482,-9.81365 -14.74428,-3.5461 -29.52681,-8.0064 -44.23757,-13.28268 -14.71076,-5.27628 -29.34784,-11.36807 -43.85293,-18.148 -0.0506,-0.0675 -0.10019,-0.13476 -0.14865,-0.20191 -1.60724,-2.17223 -2.05253,-4.18288 -1.73091,-5.88859 0.32161,-1.7057 1.4109,-3.10507 2.88848,-4.01859 2.95517,-1.82704 7.47288,-1.69895 10.52117,1.91126 0.29756,0.11426 0.59554,0.22543 0.89388,0.33351 5.88632,2.1574 11.89469,3.06909 17.6333,2.78798 5.73861,-0.28112 11.20672,-1.75712 15.97322,-4.3814 4.7665,-2.62427 8.83097,-6.39908 11.73154,-11.25188 2.90058,-4.8528 4.63692,-10.78666 4.7218,-17.66377 0.0108,-1.79007 -0.0886,-3.64271 -0.30627,-5.55382 -1.38021,-8.30615 -4.84517,-16.27911 -9.62859,-23.24416 -4.78342,-6.96504 -10.88242,-12.91207 -17.46868,-17.28707 -6.58627,-4.375 -13.65183,-7.17368 -20.39106,-8.07851 -6.73924,-0.90483 -13.14483,0.0752 -18.55594,3.05076 -9.81685,1.05315 -19.59341,-0.0499 -29.06341,-2.17054 -9.47001,-2.12068 -18.63777,-5.24909 -27.37674,-8.46574 -4.92341,-1.79842 -9.51295,-3.62819 -13.72413,-5.33638 -4.21119,-1.70819 -8.0445,-3.29354 -11.49835,-4.65382 -1.89819,-0.74431 -3.59197,-1.76516 -5.04214,-2.99224 -2.90814,-2.4577 -4.61229,-6.00839 -5.10691,-10.42772 -0.2473,-2.20967 -0.19857,-4.64372 0.18442,-7.28535 0.38299,-2.64163 1.09638,-5.49475 2.28054,-8.49842 1.94466,-5.70547 4.35306,-10.93206 7.37845,-15.67773 3.02539,-4.74568 6.67262,-8.99993 10.87206,-12.79691 4.19944,-3.79698 8.94756,-7.13212 13.9484,-10.19183 5.00083,-3.0597 10.24864,-5.84531 15.29625,-8.71709 1.0306,-0.55165 2.07202,-1.11644 3.11949,-1.69479 4.18909,-2.29944 8.46921,-4.79997 12.50478,-7.58844 4.03557,-2.78846 7.82628,-5.86785 10.97693,-9.37484 3.15065,-3.50699 5.66228,-7.44619 7.07537,-11.94778 1.41309,-4.5016 1.73057,-9.57335 0.39891,-15.24865 -0.27737,-0.98175 -0.59558,-1.95779 -0.95355,-2.92705 -2.78712,-7.55513 -8.01697,-14.72156 -14.98954,-20.86781 -6.97257,-6.14626 -15.68418,-11.24586 -25.10228,-14.78266 0,0 0,0 0,0 -5.18172,-1.9465 -10.57161,-3.42189 -15.95771,-4.40629 -5.3861,-0.98441 -10.76706,-1.47792 -15.93856,-1.51638 -5.19841,-0.62299 -10.40336,-1.17878 -15.63388,-1.61328 -7.65899,-0.63915 -15.3826,-1.01892 -23.16276,-1.01564 -7.78015,0.003 -15.61623,0.39097 -23.42685,1.28597 0,10e-6 -10e-6,10e-6 -10e-6,10e-6 -8.04658,0.92132 -16.06515,2.37867 -23.92751,4.4369 -7.86235,2.05824 -15.56672,4.71794 -22.94176,8.01148 -14.68908,6.55986 -28.0782,15.63793 -38.89785,27.21627 -1.03173,1.18855 -1.99245,2.3885 -2.88401,3.59531 -6.06014,8.19372 -8.91655,16.64914 -9.27991,24.40214 -0.36337,7.75301 1.75405,14.81926 5.58908,20.6437 3.83503,5.82445 9.38139,10.41513 15.95128,13.45186 6.5699,3.03673 14.15079,4.52371 22.25935,4.2877 2.47854,0.0365 4.98168,0.0289 7.49506,0.0167 8.12548,-0.0281 16.21742,-0.11299 23.66276,0.89442 7.44534,1.00741 14.22628,3.11625 19.89469,6.99616 3.5205,2.43461 6.60293,5.50926 9.25144,9.33494 2.60704,3.58408 4.20995,7.92412 5.04089,12.17472 0.83095,4.2506 0.90777,8.41486 0.092,11.83255 0,0 0,0 0,0 -0.49726,2.01055 -1.30775,3.79768 -2.5314,5.28883 -1.93991,2.88162 -4.63269,4.65327 -7.97781,5.71326 -3.34511,1.05999 -7.34051,1.40709 -11.62521,1.2885 -3.11336,-0.0739 -6.30741,-0.36832 -9.42251,-0.84043 -15.12243,-0.52745 -31.56779,0.96099 -48.72129,3.01823 -17.1535,2.05725 -35.00733,4.65943 -52.88599,6.21883 -5.74034,0.51057 -11.4671,0.90995 -17.17262,1.15189 -10.5359,0.93942 -21.00521,1.51635 -31.53525,2.34892 -10.530039,0.83257 -21.12145,1.92281 -31.872342,3.97916 -5.655873,2.66096 -10.98348,6.7381 -15.709183,11.71198 -4.725704,4.97387 -8.847494,10.84231 -12.130637,17.05214 -3.283144,6.20983 -5.727841,12.75917 -7.151156,19.09199 -1.423315,6.33283 -1.826719,12.44777 -1.065446,17.81038 1.022462,7.17465 4.132245,12.99201 9.63148,16.29512 8.138949,6.09975 17.986986,8.17025 28.612511,8.00206 8.799817,-0.14157 18.139908,-1.81345 27.527766,-4.06255 9.387857,-2.2491 18.824117,-5.07139 27.821747,-7.63173 30.04657,-8.74766 59.42695,-19.23995 87.79003,-28.21975 1e-5,0 1e-5,0 1e-5,0 15.712,-4.85162 30.47424,-9.14935 43.89458,-12.04492 13.42033,-2.89556 25.49674,-4.38153 35.99513,-3.64721 0.73848,0.059 1.45974,0.12671 2.16342,0.20358 1.14205,2.0764 1.43408,3.60532 1.17763,4.79047 -0.40729,1.56446 -1.76478,2.57639 -3.32994,3.50501 -1.56516,0.92862 -3.3409,1.77536 -4.45741,2.78371 -6.01883,4.14388 -13.03029,8.6812 -21.12537,13.47039 -8.09507,4.7892 -17.27045,9.82619 -27.38808,14.86706 0,0 -1e-5,0 -1e-5,0 -9.36512,4.80926 -19.09867,9.54821 -29.14085,14.08692 -10.04217,4.5387 -20.39207,8.87571 -30.94478,12.84315 -21.10542,7.93487 -43.03525,14.38879 -64.63452,17.86722 -13.32961,2.14343 -26.491291,3.12794 -39.243731,2.65294 -22.481317,-0.82926 -43.258202,-6.16327 -62.317105,-14.97239 -19.058903,-8.80912 -36.385169,-21.07905 -51.924997,-35.33228 -11.520346,-10.94649 -21.756558,-23.54003 -30.699826,-37.59755 -8.943268,-14.05752 -16.592439,-29.57832 -22.931238,-46.33625 -8.411327,-22.13115 -14.489283,-46.46963 -17.991583,-72.48532 -3.92201,-20.58914 -6.91912,-42.51685 -6.56893,-66.44651 0.17509,-11.96484 1.19485,-24.43078 3.42171,-37.47343 2.22685,-13.04266 5.66015,-26.66327 10.71455,-40.91613 5.259874,-15.35737 12.72177,-31.53536 23.307948,-48.52768 10.846247,-17.2922 23.900993,-34.80127 39.272395,-52.33988 15.371402,-17.5386 33.0597276,-35.10528 53.101517,-52.48674 24.675251,-21.01135 54.396225,-41.03922 89.18759,-59.31476 32.36225,-17.00474 69.40483,-30.90657 110.69695,-41.02989 1e-5,-1e-5 2e-5,-1e-5 2e-5,-1e-5 14.54082,-3.4826 29.34751,-6.28261 44.3812,-8.38962 26.95289,-3.59779 54.61583,-5.06893 82.91417,-4.30775 45.63957,1.62956 89.2991,8.61304 130.45774,20.89981 44.71325,13.57623 84.73127,30.70578 119.5125,50.89001 10e-6,10e-6 10e-6,10e-6 2e-5,10e-6 2.88134,1.66569 5.73485,3.3401 8.56038,5.02295 10.91044,6.90228 21.35714,14.00885 31.19694,21.37728 z m -653.466194,220.9796 c -2.31801,4.04725 -4.384066,8.05447 -6.214433,12.00831 -4.684612,9.91752 -8.00724,19.52991 -10.129014,28.66664 -2.121775,9.13673 -3.043458,17.79867 -2.927982,25.85346 0.230952,16.10958 4.595313,29.77427 11.902864,40.22558 7.307551,10.45131 17.551706,17.69758 29.8130017,21.19028 12.2612953,3.4927 26.5270603,3.23188 42.2737123,-1.1678 6.062549,-1.24788 12.471163,-3.48388 18.964344,-6.48194 6.493181,-2.99806 13.071712,-6.75726 19.489256,-11.09325 9.739194,-6.58911 19.133075,-14.50652 27.331045,-23.28746 8.19797,-8.78093 15.21328,-18.42778 20.16152,-28.78938 3.98395,-9.11165 6.15279,-17.63752 6.63968,-25.49447 0.48688,-7.85695 -0.71581,-15.04137 -3.51718,-21.27212 -2.80136,-6.23075 -7.20969,-11.50106 -13.05304,-15.41238 -5.84336,-3.91132 -13.12724,-6.45636 -21.492424,-7.22674 -7.652444,-2.43069 -15.601271,-4.80307 -24.006628,-6.60774 -8.405357,-1.80467 -17.271047,-3.04047 -26.707635,-3.16117 -9.436588,-0.1207 -19.450262,0.87639 -30.026058,3.54637 -10.5757951,2.66998 -21.7204128,7.01791 -33.19395,13.55066 -1.887022,1.42395 -3.741213,3.04555 -5.307079,4.95315 z m 587.414654,-36.7072 c -0.40845,-0.34484 -0.81769,-0.68682 -1.22767,-1.02591 -7.66689,-6.29336 -15.73213,-11.58455 -23.8284,-15.83951 -8.09626,-4.25496 -16.22102,-7.47386 -24.02931,-9.68237 -7.80829,-2.20851 -15.29826,-3.40734 -22.18045,-3.67535 -6.88218,-0.268 -13.15563,0.39359 -18.60753,1.86751 -4.54484,1.21654 -8.52579,3.00582 -11.85704,5.27924 -3.33125,2.27342 -6.01324,5.03027 -8.00407,8.19252 -3.98166,6.3245 -5.17712,14.2409 -3.63097,23.39744 0.0446,0.26632 0.0916,0.53369 0.1408,0.80212 -0.10534,5.65943 -1.34112,10.96702 -2.81189,16.20415 -1.47077,5.23714 -3.17821,10.40539 -4.37937,15.7501 -1.20116,5.34471 -1.89671,10.86042 -1.48186,16.78637 0.41484,5.92595 1.93822,12.25231 5.05493,19.33185 4.43424,9.06812 10.18256,17.72506 16.80063,25.92561 5.98682,7.42137 12.70712,14.45302 19.86487,20.9717 7.15775,6.51868 14.75612,12.5241 22.51402,17.75884 7.7579,5.23474 15.67698,9.69626 23.45572,13.01638 7.77873,3.32012 15.41861,5.4963 22.57583,6.0896 13.90738,1.71412 26.05178,-0.79405 35.86594,-6.99256 9.81416,-6.1985 17.29186,-16.08396 21.44374,-28.88943 4.15188,-12.80547 4.96187,-28.54853 1.15717,-46.11838 -1.90235,-8.78492 -4.96162,-18.01961 -9.33231,-27.50415 -4.37069,-9.48454 -10.05454,-19.22006 -17.17476,-28.94567 -5.92496,-7.91385 -12.73234,-15.6543 -20.32802,-22.7001 z M 328.33364,783.22701 c -0.64793,-0.23281 -0.19437,-0.25692 0,0 z m -20.80558,72.40077 c -2.36482,3.64297 -4.31745,7.57885 -5.63123,11.67966 -1.31379,4.10081 -1.983,8.36796 -1.78423,12.62691 0.19876,4.25895 1.27023,8.51179 3.35558,12.50978 2.08534,3.99799 5.18785,7.7425 9.30585,10.88338 -0.0288,-4.09224 0.1132,-8.2246 0.19698,-12.36503 0.0838,-4.14043 0.1095,-8.28871 -0.0849,-12.41271 -0.19445,-4.12401 -0.60808,-8.22288 -1.34484,-12.27319 -0.73677,-4.05031 -1.79482,-8.05114 -3.24142,-12.00157 -0.25363,0.45164 -0.51087,0.90257 -0.77174,1.35277 z"
     id="path3083"
     inkscape:connector-curvature="0"
     sodipodi:nodetypes="cccccccccccccccccccccccccccccccccccccccccccccccccccccccccccccccccccccccccccccccc"
     inkscape:path-effect="#path-effect3033"
     inkscape:original-d="m 192.34039,141.91926 c -17.68494,84.31814 -18.83323,171.91407 -4.6875,256.84375 -33.08361,23.1484 -50.55659,62.33348 -84.09375,84.96875 C 71.413201,464.76123 51.170684,431.98813 32.273637,400.9001 18.640344,376.23718 7.6711232,350.2322 -3.0346143,324.20051 c -4.971134,13.1088 2.59253541,26.47905 2.65994021,39.74434 C 10.888816,419.93664 42.446367,469.04716 57.419219,523.82171 c 4.139684,37.71534 -13.724688,72.76467 -28.228845,106.33717 -37.1292713,99.17453 -12.720075,220.29309 64.962512,293.51038 31.281854,29.48144 72.088454,45.33761 111.690944,60.07901 38.99559,22.80843 65.99573,60.12173 94.15967,94.38683 14.73541,20.5019 28.27021,46.4164 21.07657,72.2755 -10.74264,34.6355 -45.17498,56.4527 -53.04106,92.4436 -4.00561,14.9167 -5.09019,34.0816 7.42638,45.2839 16.7433,12.5067 43.67594,2.9129 49.50819,-16.9589 19.39838,-33.294 14.65117,-73.5822 26.02306,-109.3224 8.89617,-21.5255 30.17257,-34.232 50.97344,-42.2344 24.30679,-13.248 41.8757,-38.661 43.73578,-66.5089 3.24434,-20.2933 8.39029,-43.8607 27.91578,-54.69424 24.15194,-15.09695 53.04517,-22.3283 74.17594,-42.22466 43.82281,-35.20664 79.88349,-80.10307 105.31102,-130.20275 36.595,-73.24712 48.02766,-160.51154 23.45054,-239.35384 -18.58388,-62.11617 -55.72417,-117.20559 -100.3125,-163.65625 -16.76243,-22.58192 -17.43704,-53.70551 -7.15677,-79.14655 10.33884,-37.7894 25.80226,-74.46678 30.06302,-113.6972 -25.0853,46.89173 -43.87141,97.06185 -72.15625,142.25 -39.79156,-16.45333 -85.66022,-13.90945 -123.22638,-36.10606 -3.33372,-2.50734 -7.27256,-4.16201 -10.55487,-6.64394 4.13291,-15.95861 -5.88549,-30.79903 -8.04552,-46.19905 -2.28229,-8.99682 -11.64059,-15.93144 -9.25837,-25.69254 1.65273,-11.38572 -7.08565,-24.16163 -19.41486,-22.73341 -11.79586,0.9607 -16.96976,13.44649 -16.9375,23.84375 -1.02057,7.34281 -9.67893,9.78511 -12.18566,16.54691 -5.94495,11.21162 -9.25829,23.67385 -13.72059,35.48434 -2.6192,10.71647 0.14873,22.17399 3.54243,31.95095 -13.42623,20.24343 -36.36518,36.09276 -61.60493,34.6428 -19.23928,1.64259 -35.62049,-15.90733 -36.84318,-34.37096 -11.69613,-43.3896 -16.22906,-88.29925 -20.6771,-132.89149 -1.99306,-24.45647 -3.36369,-48.95837 -4.72972,-73.4563 -0.33333,1.71875 -0.66667,3.4375 -1,5.15625 z m 166.28125,56.71875 c -17.47259,0.36287 -19.70278,30.61911 -2.4976,33.62057 16.36804,3.75452 27.39487,-23.26902 11.9976,-31.21432 -2.81206,-1.78254 -6.1929,-2.54047 -9.5,-2.40625 z m 68.5,185.875 c 52.68637,1.79536 99.74044,32.52898 134.70238,70.12192 72.95816,75.26037 104.00023,190.54229 72.88987,291.3934 -14.47567,51.39337 -41.50375,100.32271 -82.21725,135.51593 -8.35915,1.01318 -7.77363,-12.81668 -0.75,-14.125 16.20531,-16.38247 17.25488,-48.13434 -2.854,-61.8828 -21.75085,-12.96478 -52.42102,3.91652 -55.88176,28.28004 -13.56781,26.37934 -43.63907,38.17293 -71.3072,43.01791 -14.21856,2.50589 -32.51336,-5.50989 -33.36329,-21.5714 -3.2806,-24.03697 13.39049,-43.96077 23.16856,-64.33712 8.74163,-17.14057 15.27936,-39.81772 3.13368,-56.97258 -13.12052,-16.93605 -37.1806,-18.92489 -56.61474,-14.22155 -33.73812,2.27952 -68.60427,-11.21353 -101.41112,1.4252 -27.42841,12.23945 -30.6112,54.39404 -7.88678,72.76989 15.54191,13.81301 37.40535,23.22756 44.34243,44.42772 3.98678,11.05808 -1.60673,24.42111 -13.13828,28.00219 -12.12471,4.74631 -25.00855,-1.44869 -33.84375,-9.78125 -28.56812,-21.27334 -56.08962,-44.93115 -75.66839,-75.05028 -10.55915,-14.79765 -19.41364,-30.88097 -29.92536,-45.60597 -19.13182,-15.61384 -54.293043,-1.21411 -54.000004,24.375 -1.50506,26.90551 17.004884,49.06844 33.686504,68.08482 37.32153,42.02064 85.74126,72.6036 136.46975,95.91518 -1.0943,8.56869 -12.15994,5.12455 -18.01965,5.45379 -71.565,-2.65481 -137.18902,-52.83611 -162.502273,-119.19609 -15.010981,-39.31865 -15.441416,-82.64502 -9.994432,-123.89353 7.378478,-51.42037 27.983253,-99.9783 54.000015,-144.60108 19.88605,-38.02902 42.80673,-77.86033 81.37423,-99.60775 39.17107,-21.78769 83.46143,-31.79477 127.01769,-40.59562 29.21326,-5.09473 58.18472,-11.623 87.35318,-16.82698 3.73732,-0.31908 7.48786,-0.53816 11.23999,-0.51399 z m -241.46875,168.1875 c -48.3046,21.13019 -63.96889,91.42975 -30.10071,131.54164 14.57827,19.93323 45.48435,29.98328 66.81946,14.83336 21.95024,-17.03202 23.98549,-50.22966 11.44365,-73.50787 -9.2419,-26.7 -19.38553,-56.45448 -44.5374,-72.30463 -1.16151,-0.41416 -2.38641,-0.68351 -3.625,-0.5625 z m 267.3125,15.375 c -34.1916,5.10272 -54.05661,47.43738 -39.65936,77.9622 5.97318,19.26305 3.73428,43.16399 20.50469,57.4175 25.78668,19.81066 66.38353,6.89094 80.68277,-20.98983 22.87126,-41.14328 -1.0036,-100.98521 -47.0635,-112.94037 -4.72835,-1.12047 -9.60385,-1.69043 -14.4646,-1.4495 z m 14.84375,358.03125 c -0.71401,0.30805 -0.37236,-0.037 0,0 z m -129.9375,96.21874 c 9.04373,14.4884 7.83367,34.6773 -3.15625,47.8125 -0.37301,-16.3642 -2.81289,-33.2688 2.40625,-49.1562 0.25,0.4479 0.5,0.8958 0.75,1.3437 z" />
</svg>
