<?xml version="1.0" encoding="UTF-8" standalone="no"?>
<svg
   xmlns:dc="http://purl.org/dc/elements/1.1/"
   xmlns:cc="http://creativecommons.org/ns#"
   xmlns:rdf="http://www.w3.org/1999/02/22-rdf-syntax-ns#"
   xmlns:svg="http://www.w3.org/2000/svg"
   xmlns="http://www.w3.org/2000/svg"
   xmlns:sodipodi="http://sodipodi.sourceforge.net/DTD/sodipodi-0.dtd"
   xmlns:inkscape="http://www.inkscape.org/namespaces/inkscape"
   version="1.1"
   width="205.08952"
   height="44"
   id="svg1101"
   sodipodi:docname="header_logo.svg"
   inkscape:version="0.92.2 2405546, 2018-03-11">
  <metadata
     id="metadata1105">
    <rdf:RDF>
      <cc:Work
         rdf:about="">
        <dc:format>image/svg+xml</dc:format>
        <dc:type
           rdf:resource="http://purl.org/dc/dcmitype/StillImage" />
        <dc:title></dc:title>
      </cc:Work>
    </rdf:RDF>
  </metadata>
  <sodipodi:namedview
     pagecolor="#ffffff"
     bordercolor="#666666"
     borderopacity="1"
     objecttolerance="10"
     gridtolerance="10"
     guidetolerance="10"
     inkscape:pageopacity="0"
     inkscape:pageshadow="2"
     inkscape:window-width="1600"
     inkscape:window-height="847"
     id="namedview1103"
     showgrid="false"
     fit-margin-top="0"
     fit-margin-left="0"
     fit-margin-right="2"
     fit-margin-bottom="0"
     inkscape:zoom="1.7109375"
     inkscape:cx="3.5518949"
     inkscape:cy="-2.8972141"
     inkscape:window-x="0"
     inkscape:window-y="25"
     inkscape:window-maximized="1"
     inkscape:current-layer="svg1101" />
  <defs
     id="defs1025">
    <linearGradient
       x1="11.08448"
       y1="15.67174"
       x2="56.7145"
       y2="52.127251"
       gradientUnits="userSpaceOnUse"
       id="color-1">
      <stop
         offset="0.23"
         stop-color="#000000"
         stop-opacity="0.3"
         id="stop1002" />
      <stop
         offset="1"
         stop-color="#000000"
         stop-opacity="0"
         id="stop1004" />
    </linearGradient>
    <filter
       id="dropshadow-base">
      <feColorMatrix
         type="matrix"
         values="0 0 0 0 0  0 0 0 0 0  0 0 0 0 0  0 0 0 .8 0"
         id="feColorMatrix1007" />
      <feOffset
         dx="0"
         dy="1"
         id="feOffset1009" />
      <feGaussianBlur
         stdDeviation="1"
         id="feGaussianBlur1011"
         result="result1" />
      <feComposite
         in="SourceGraphic"
         in2="result1"
         id="feComposite1013" />
    </filter>
    <filter
       id="dropshadow-banner"
       x="-0.1"
       y="-0.1"
       width="1.2"
       height="1.3">
      <feColorMatrix
         type="matrix"
         values="0 0 0 0 0  0 0 0 0 0  0 0 0 0 0  0 0 0 .4 0"
         id="feColorMatrix1016" />
      <feOffset
         dx="0"
         dy="1"
         id="feOffset1018" />
      <feGaussianBlur
         stdDeviation="0.5"
         id="feGaussianBlur1020"
         result="result1" />
      <feComposite
         in="SourceGraphic"
         in2="result1"
         id="feComposite1022" />
    </filter>
  </defs>
  <g
     stroke-width="none"
     stroke-miterlimit="none"
     font-weight="none"
     font-size="none"
     text-anchor="none"
     style="font-family:none;mix-blend-mode:normal;fill:none;fill-rule:nonzero;stroke:none;stroke-linecap:butt;stroke-linejoin:miter;stroke-dasharray:none;stroke-dashoffset:0"
     id="g1099"
     transform="translate(-2,-2)">
    <path
       d="M 7,43 C 5.89543,43 5,42.10457 5,41 V 7 C 5,5.89543 5.89543,5 7,5 h 34 c 1.10457,0 2,0.89543 2,2 v 34 c 0,1.10457 -0.89543,2 -2,2 z"
       id="base 1 17 1"
       stroke-miterlimit="10"
       inkscape:connector-curvature="0"
       style="fill:#3a3181;stroke-width:1;stroke-miterlimit:10" />
    <path
       d="m 11.24783,32.13461 c -0.13363,-0.13363 -0.19855,-0.32913 -0.14405,-0.56332 0.9023,-3.20006 1.82354,-6.4006 2.73313,-9.60085 0.06828,-0.47511 0.53397,-0.99015 1.04913,-1.02459 1.6501,-0.01095 3.29539,-0.0034 4.94363,-0.0072 l 10e-6,10e-6 c 0.19236,-0.0041 0.35642,0.06403 0.47108,0.17869 l 4.28624,4.28624 2.5e-4,-8.6e-4 -3.08783,-3.08783 c -0.14127,-0.14127 -0.19474,-0.36196 -0.12379,-0.61083 0.12214,-0.42839 0.56539,-0.77325 0.99378,-0.77325 h 3.4929 l 0.22174,-0.77768 -3.09286,-3.09286 c -0.14127,-0.14127 -0.19474,-0.36196 -0.12379,-0.61083 0.12214,-0.42839 0.56539,-0.77325 0.99378,-0.77325 h 4.38424 c 0.03346,-0.003 0.06701,-0.0045 0.10051,-0.0045 0.0335,0 0.06617,0.0015 0.09795,0.0045 h 0.12483 c 0.17955,0 0.32716,0.06058 0.42907,0.16249 l 4.97038,4.97038 1.02437,-3.59267 c 0.15338,-0.45831 0.17781,-1.0134 0.68842,-1.34002 0.38514,-0.27747 0.83528,-0.23443 1.07122,0.0015 L 43,22.12575 V 41 c 0,1.10457 -0.89543,2 -2,2 H 22.11322 Z M 27.69921,26.8951 c 0,0 0,0 0,0 z"
       stroke-miterlimit="10"
       id="path1028"
       inkscape:connector-curvature="0"
       style="fill:url(#color-1);stroke-width:1;stroke-miterlimit:10" />
    <path
       d="m 19.82969,20.93871 c 0.42908,-0.0091 0.71732,0.34085 0.63069,0.76593 -0.39933,1.43638 -0.81777,2.87327 -1.22446,4.30984 -0.08331,0.45045 -0.44636,1.02484 -0.97791,1.0676 -1.39996,0.01037 -2.79484,0.0015 -4.19285,0.0044 l -1.05769,3.70956 c -0.15339,0.45832 -0.17781,1.01341 -0.68842,1.34003 -0.60326,0.43463 -1.366,0.08288 -1.21526,-0.56482 0.9023,-3.20006 1.82354,-6.4006 2.73312,-9.60085 0.06828,-0.47511 0.53396,-0.99016 1.04913,-1.02459 1.6501,-0.01095 3.29539,-0.0033 4.94364,-0.0071 z m -4.63087,2.15544 -0.5494,1.92688 c -0.09598,0.33663 0.11933,0.6076 0.48279,0.6076 h 1.97733 c 0.36346,0 0.73336,-0.27098 0.82934,-0.6076 l 0.5494,-1.92688 c 0.09598,-0.33663 -0.11939,-0.6076 -0.48285,-0.6076 H 16.0281 c -0.36346,0 -0.7333,0.27098 -0.82928,0.6076 z m 13.14711,-7.4224 c 0.03351,0 0.06616,0.0015 0.09795,0.0045 h 0.12483 c 0.4284,0 0.67498,0.34486 0.55284,0.77325 -0.01391,0.04879 -0.03219,0.09641 -0.05393,0.14265 l -1.4169,4.96939 c -0.0046,0.04623 -0.01349,0.09381 -0.0274,0.14259 -0.01391,0.04878 -0.03219,0.09642 -0.05393,0.14265 l -1.19809,4.20196 c -0.0046,0.04623 -0.01349,0.09381 -0.02739,0.14259 -0.12215,0.4284 -0.56539,0.77325 -0.99379,0.77325 h -4.70753 c -0.4284,0 -0.67499,-0.34485 -0.55284,-0.77325 0.12215,-0.4284 0.5654,-0.77331 0.9938,-0.77331 h 3.49935 l 0.83843,-2.94057 h -3.4929 c -0.4284,0 -0.67497,-0.34491 -0.55282,-0.77331 0.12215,-0.4284 0.56539,-0.77325 0.99379,-0.77325 h 3.4929 l 1.05726,-3.70806 h -3.49935 c -0.4284,0 -0.67497,-0.34491 -0.55282,-0.77331 0.12215,-0.4284 0.56539,-0.77325 0.99379,-0.77325 h 4.38424 c 0.03347,-0.003 0.06701,-0.0045 0.10051,-0.0045 z m -0.17564,11.40204 c -0.42908,0.0091 -0.71733,-0.34085 -0.63069,-0.76593 0.39933,-1.43638 0.81777,-2.87327 1.22446,-4.30984 0.08331,-0.45045 0.44636,-1.02484 0.97791,-1.0676 1.39997,-0.01037 2.79486,-0.0015 4.19287,-0.0044 l 1.05768,-3.70954 c 0.15339,-0.45831 0.17781,-1.0134 0.68842,-1.34003 0.60327,-0.43463 1.36601,-0.08288 1.21527,0.56482 -0.90228,3.20004 -1.82353,6.40057 -2.73311,9.60082 -0.06828,0.47511 -0.53396,0.99016 -1.04914,1.02459 -1.65011,0.01096 -3.29541,0.0034 -4.94367,0.0071 z m 4.63089,-2.15543 0.5494,-1.92688 c 0.09598,-0.33663 -0.11933,-0.6076 -0.4828,-0.6076 h -1.97734 c -0.36346,0 -0.73336,0.27098 -0.82934,0.6076 l -0.5494,1.92688 c -0.09598,0.33663 0.11939,0.6076 0.48285,0.6076 h 1.97734 c 0.36346,0 0.7333,-0.27098 0.82928,-0.6076 z"
       id="rect1386 1 1"
       stroke-miterlimit="4"
       inkscape:connector-curvature="0"
       style="fill:none;stroke-width:0;stroke-miterlimit:4" />
    <g
       id="svg841 5"
       stroke-miterlimit="4"
       style="stroke-miterlimit:4">
      <g
         id="layer1 1">
        <g
           id="g1572 1">
          <path
             d="m 19.82969,20.93871 c -1.64825,0.0038 -3.29354,-0.0038 -4.94364,0.0071 -0.51517,0.03443 -0.98085,0.54947 -1.04913,1.02459 -0.90958,3.20024 -1.83083,6.40078 -2.73312,9.60085 -0.15074,0.6477 0.61199,0.99945 1.21526,0.56482 0.51061,-0.32662 0.53503,-0.88172 0.68842,-1.34003 l 1.05769,-3.70956 c 1.398,-0.0029 2.79289,0.0059 4.19285,-0.0044 0.53154,-0.04276 0.8946,-0.61715 0.97791,-1.0676 0.40669,-1.43656 0.82513,-2.87346 1.22446,-4.30984 0.08664,-0.42508 -0.20161,-0.77499 -0.63069,-0.76593 z m -3.80159,1.54784 h 1.97733 c 0.36346,0 0.57883,0.27098 0.48285,0.6076 l -0.5494,1.92688 c -0.09598,0.33663 -0.46587,0.6076 -0.82934,0.6076 h -1.97733 c -0.36346,0 -0.57877,-0.27098 -0.48279,-0.6076 l 0.5494,-1.92688 c 0.09598,-0.33663 0.46582,-0.6076 0.82928,-0.6076 z"
             id="rect1386 1"
             inkscape:connector-curvature="0"
             style="fill:#f3921a;stroke-width:0.68791997" />
          <path
             d="m 28.34593,15.67175 c -0.03351,0 -0.06704,0.0015 -0.10051,0.0045 h -4.38424 c -0.4284,0 -0.87164,0.34486 -0.99379,0.77325 -0.12215,0.4284 0.12442,0.77331 0.55282,0.77331 h 3.49935 l -1.05726,3.70806 h -3.4929 c -0.4284,0 -0.87164,0.34486 -0.99379,0.77325 -0.12215,0.4284 0.12442,0.77331 0.55282,0.77331 h 3.4929 L 24.5829,25.418 h -3.49935 c -0.4284,0 -0.87166,0.34491 -0.9938,0.77331 -0.12215,0.4284 0.12444,0.77325 0.55284,0.77325 h 4.70753 c 0.4284,0 0.87164,-0.34485 0.99379,-0.77325 0.01391,-0.04878 0.02277,-0.09636 0.02739,-0.14259 l 1.19809,-4.20196 c 0.02174,-0.04623 0.04003,-0.09387 0.05393,-0.14265 0.01391,-0.04878 0.02277,-0.09636 0.0274,-0.14259 l 1.4169,-4.96939 c 0.02174,-0.04624 0.04002,-0.09386 0.05393,-0.14265 0.12215,-0.4284 -0.12444,-0.77325 -0.55284,-0.77325 h -0.12483 c -0.03178,-0.003 -0.06444,-0.0045 -0.09795,-0.0045 z"
             id="rect1504 1"
             inkscape:connector-curvature="0"
             style="fill:#fdfeff;stroke-width:0.69367999" />
          <path
             d="m 28.17029,27.0738 c 1.64825,-0.0038 3.29355,0.0038 4.94367,-0.0071 0.51517,-0.03443 0.98085,-0.54947 1.04914,-1.02459 0.90958,-3.20024 1.83083,-6.40077 2.73311,-9.60082 0.15074,-0.6477 -0.612,-0.99944 -1.21527,-0.56482 -0.51061,0.32662 -0.53503,0.88171 -0.68842,1.34003 l -1.05768,3.70954 c -1.39801,0.003 -2.7929,-0.0059 -4.19287,0.0044 -0.53155,0.04276 -0.8946,0.61715 -0.97791,1.0676 -0.40669,1.43656 -0.82513,2.87346 -1.22446,4.30984 -0.08664,0.42508 0.20161,0.77499 0.63069,0.76593 z m 3.80161,-1.54784 h -1.97734 c -0.36346,0 -0.57883,-0.27098 -0.48285,-0.6076 l 0.5494,-1.92688 c 0.09598,-0.33663 0.46588,-0.6076 0.82934,-0.6076 h 1.97734 c 0.36346,0 0.57878,0.27098 0.4828,0.6076 l -0.5494,1.92688 c -0.09598,0.33663 -0.46582,0.6076 -0.82928,0.6076 z"
             id="rect1386-7 1"
             inkscape:connector-curvature="0"
             style="fill:#f3921a;stroke-width:0.68791997" />
        </g>
      </g>
    </g>
    <path
       d="M 2,24 C 2,11.84974 11.84974,2 24,2 36.15026,2 46,11.84974 46,24 46,36.15026 36.15026,46 24,46 11.84974,46 2,36.15026 2,24 Z"
       id="base 1 13 1"
       stroke-miterlimit="10"
       inkscape:connector-curvature="0"
       style="fill:none;stroke-width:1;stroke-miterlimit:10" />
    <path
       d="M 2,24 C 2,11.84974 11.84974,2 24,2 36.15026,2 46,11.84974 46,24 46,36.15026 36.15026,46 24,46 11.84974,46 2,36.15026 2,24 Z"
       id="base 1 9 1"
       stroke-miterlimit="10"
       inkscape:connector-curvature="0"
       style="fill:none;stroke-width:1;stroke-miterlimit:10" />
    <path
       d="M 2,24 C 2,11.84974 11.84974,2 24,2 36.15026,2 46,11.84974 46,24 46,36.15026 36.15026,46 24,46 11.84974,46 2,36.15026 2,24 Z"
       id="base 1 5 1"
       stroke-miterlimit="10"
       inkscape:connector-curvature="0"
       style="fill:none;stroke-width:1;stroke-miterlimit:10" />
    <path
       d="M 2,24 C 2,11.84974 11.84974,2 24,2 36.15026,2 46,11.84974 46,24 46,36.15026 36.15026,46 24,46 11.84974,46 2,36.15026 2,24 Z"
       id="base 1 1 1"
       stroke-miterlimit="10"
       inkscape:connector-curvature="0"
       style="fill:none;stroke-width:1;stroke-miterlimit:10" />
    <g
       id="svg841 1 1"
       stroke-miterlimit="10"
       font-weight="400"
       font-size="14"
       style="font-weight:400;font-size:14px;font-family:Roboto, sans-serif;text-anchor:start;fill:#000000;stroke-width:1;stroke-miterlimit:10">
      <g
         id="layer1 1 1">
        <g
           id="g1572 1 1" />
      </g>
    </g>
    <rect
       x="2"
       y="2"
       width="44"
       height="22"
       stroke-miterlimit="10"
       id="rect1044"
       style="fill:none;stroke-width:1;stroke-miterlimit:10" />
    <path
       d="M 2,24 V 2 h 44 v 22 z"
       stroke-miterlimit="10"
       id="path1046"
       inkscape:connector-curvature="0"
       style="fill:none;stroke-width:1;stroke-miterlimit:10" />
    <path
       d="M 2,24 V 2 h 44 v 22 z"
       stroke-miterlimit="10"
       id="path1048"
       inkscape:connector-curvature="0"
       style="fill:none;stroke-width:1;stroke-miterlimit:10" />
    <path
       d="M 2,24 V 2 h 44 v 22 z"
       stroke-miterlimit="10"
       id="path1050"
       inkscape:connector-curvature="0"
       style="fill:none;stroke-width:1;stroke-miterlimit:10" />
    <path
       d="M 2,24 V 2 h 44 v 22 z"
       stroke-miterlimit="10"
       id="path1052"
       inkscape:connector-curvature="0"
       style="fill:none;stroke-width:1;stroke-miterlimit:10" />
    <g
       id="svg841 2 1"
       stroke-miterlimit="10"
       font-weight="400"
       font-size="14"
       style="font-weight:400;font-size:14px;font-family:Roboto, sans-serif;text-anchor:start;fill:#000000;stroke-width:1;stroke-miterlimit:10">
      <g
         id="g1056">
        <g
           id="g1054" />
      </g>
    </g>
    <rect
       x="2"
       y="2"
       width="44"
       height="22"
       stroke-miterlimit="10"
       id="rect1059"
       style="fill:none;stroke-width:1;stroke-miterlimit:10" />
    <path
       d="M 2,24 V 2 h 44 v 22 z"
       stroke-miterlimit="10"
       id="path1061"
       inkscape:connector-curvature="0"
       style="fill:none;stroke-width:1;stroke-miterlimit:10" />
    <path
       d="M 2,24 V 2 h 44 v 22 z"
       stroke-miterlimit="10"
       id="path1063"
       inkscape:connector-curvature="0"
       style="fill:none;stroke-width:1;stroke-miterlimit:10" />
    <path
       d="M 2,24 V 2 h 44 v 22 z"
       stroke-miterlimit="10"
       id="path1065"
       inkscape:connector-curvature="0"
       style="fill:none;stroke-width:1;stroke-miterlimit:10" />
    <path
       d="M 2,24 V 2 h 44 v 22 z"
       stroke-miterlimit="10"
       id="path1067"
       inkscape:connector-curvature="0"
       style="fill:none;stroke-width:1;stroke-miterlimit:10" />
    <g
       id="svg841 3 1"
       stroke-miterlimit="10"
       font-weight="400"
       font-size="14"
       style="font-weight:400;font-size:14px;font-family:Roboto, sans-serif;text-anchor:start;fill:#000000;stroke-width:1;stroke-miterlimit:10">
      <g
         id="g1071">
        <g
           id="g1069" />
      </g>
    </g>
    <rect
       x="2"
       y="2"
       width="44"
       height="22"
       stroke-miterlimit="10"
       id="rect1074"
       style="fill:none;stroke-width:1;stroke-miterlimit:10" />
    <path
       d="M 2,24 V 2 h 44 v 22 z"
       stroke-miterlimit="10"
       id="path1076"
       inkscape:connector-curvature="0"
       style="fill:none;stroke-width:1;stroke-miterlimit:10" />
    <path
       d="M 2,24 V 2 h 44 v 22 z"
       stroke-miterlimit="10"
       id="path1078"
       inkscape:connector-curvature="0"
       style="fill:none;stroke-width:1;stroke-miterlimit:10" />
    <path
       d="M 2,24 V 2 h 44 v 22 z"
       stroke-miterlimit="10"
       id="path1080"
       inkscape:connector-curvature="0"
       style="fill:none;stroke-width:1;stroke-miterlimit:10" />
    <path
       d="M 2,24 V 2 h 44 v 22 z"
       stroke-miterlimit="10"
       id="path1082"
       inkscape:connector-curvature="0"
       style="fill:none;stroke-width:1;stroke-miterlimit:10" />
    <g
       id="svg841 4 1"
       stroke-miterlimit="10"
       font-weight="400"
       font-size="14"
       style="font-weight:400;font-size:14px;font-family:Roboto, sans-serif;text-anchor:start;fill:#000000;stroke-width:1;stroke-miterlimit:10">
      <g
         id="g1086">
        <g
           id="g1084" />
      </g>
    </g>
    <rect
       x="2"
       y="2"
       width="44"
       height="22"
       stroke-miterlimit="10"
       id="rect1089"
       style="fill:none;stroke-width:1;stroke-miterlimit:10" />
    <path
       d="M 2,24 V 2 h 44 v 22 z"
       stroke-miterlimit="10"
       id="path1091"
       inkscape:connector-curvature="0"
       style="fill:none;stroke-width:1;stroke-miterlimit:10" />
    <path
       d="M 2,24 V 2 h 44 v 22 z"
       stroke-miterlimit="10"
       id="path1093"
       inkscape:connector-curvature="0"
       style="fill:none;stroke-width:1;stroke-miterlimit:10" />
    <path
       d="M 2,24 V 2 h 44 v 22 z"
       stroke-miterlimit="10"
       id="path1095"
       inkscape:connector-curvature="0"
       style="fill:none;stroke-width:1;stroke-miterlimit:10" />
    <path
       d="M 2,24 V 2 h 44 v 22 z"
       stroke-miterlimit="10"
       id="path1097"
       inkscape:connector-curvature="0"
       style="fill:none;stroke-width:1;stroke-miterlimit:10" />
  </g>
  <text
     xml:space="preserve"
     style="font-style:italic;font-variant:normal;font-weight:300;font-stretch:normal;font-size:40px;line-height:125%;font-family:Roboto, sans-serif;-inkscape-font-specification:'Roboto, sans-serif, Light Italic';font-variant-ligatures:normal;font-variant-caps:normal;font-variant-numeric:normal;font-feature-settings:normal;text-align:start;letter-spacing:0px;word-spacing:0px;writing-mode:lr-tb;text-anchor:start;fill:#000000;fill-opacity:1;stroke:none;stroke-width:1px;stroke-linecap:butt;stroke-linejoin:miter;stroke-opacity:1"
     x="42.841549"
     y="36.287773"
     id="text1109"><tspan
       sodipodi:role="line"
       id="tspan1107"
       x="42.841549"
       y="36.287773">Pascal3D</tspan></text>
</svg>
