<svg version="1.1" xmlns="http://www.w3.org/2000/svg" xmlns:xlink="http://www.w3.org/1999/xlink" width="48" height="48"><defs><linearGradient x1="11.08448" y1="15.67174" x2="56.7145" y2="52.12725" gradientUnits="userSpaceOnUse" id="color-1"><stop offset="0.23" stop-color="#000000" stop-opacity="0.3"></stop><stop offset="1" stop-color="#000000" stop-opacity="0"></stop></linearGradient><filter id="dropshadow-base"><feColorMatrix type="matrix" values="0 0 0 0 0  0 0 0 0 0  0 0 0 0 0  0 0 0 .8 0"></feColorMatrix> <feOffset dx="0" dy="1"></feOffset> <feGaussianBlur stdDeviation="1"></feGaussianBlur> <feComposite in="SourceGraphic"></feComposite></filter><filter id="dropshadow-banner" x="-10%" y="-10%" width="120%" height="130%"><feColorMatrix type="matrix" values="0 0 0 0 0  0 0 0 0 0  0 0 0 0 0  0 0 0 .4 0"></feColorMatrix> <feOffset dx="0" dy="1"></feOffset> <feGaussianBlur stdDeviation="0.5"></feGaussianBlur> <feComposite in="SourceGraphic"></feComposite></filter></defs><g fill="none" fill-rule="nonzero" stroke="none" stroke-width="none" stroke-linecap="butt" stroke-linejoin="miter" stroke-miterlimit="none" stroke-dasharray="" stroke-dashoffset="0" font-family="none" font-weight="none" font-size="none" text-anchor="none" style="mix-blend-mode: normal"><path d="M7,43c-1.10457,0 -2,-0.89543 -2,-2v-34c0,-1.10457 0.89543,-2 2,-2h34c1.10457,0 2,0.89543 2,2v34c0,1.10457 -0.89543,2 -2,2z" id="base 1 17 1" fill="#3a3181" stroke-width="1" stroke-miterlimit="10"></path><path d="M11.24783,32.13461c-0.13363,-0.13363 -0.19855,-0.32913 -0.14405,-0.56332c0.9023,-3.20006 1.82354,-6.4006 2.73313,-9.60085c0.06828,-0.47511 0.53397,-0.99015 1.04913,-1.02459c1.6501,-0.01095 3.29539,-0.00335 4.94363,-0.00716l0.00001,0.00001c0.19236,-0.00406 0.35642,0.06403 0.47108,0.17869l4.28624,4.28624l0.00025,-0.00086l-3.08783,-3.08783c-0.14127,-0.14127 -0.19474,-0.36196 -0.12379,-0.61083c0.12214,-0.42839 0.56539,-0.77325 0.99378,-0.77325h3.4929l0.22174,-0.77768l-3.09286,-3.09286c-0.14127,-0.14127 -0.19474,-0.36196 -0.12379,-0.61083c0.12214,-0.42839 0.56539,-0.77325 0.99378,-0.77325h4.38424c0.03346,-0.00296 0.06701,-0.00449 0.10051,-0.00449c0.0335,0 0.06617,0.00155 0.09795,0.00449h0.12483c0.17955,0 0.32716,0.06058 0.42907,0.16249l4.97038,4.97038l1.02437,-3.59267c0.15338,-0.45831 0.17781,-1.0134 0.68842,-1.34002c0.38514,-0.27747 0.83528,-0.23443 1.07122,0.0015l6.24783,6.24783v18.87425c0,1.10457 -0.89543,2 -2,2h-18.88678zM27.69921,26.8951c0,0 0,0 0,0z" fill="url(#color-1)" stroke-width="1" stroke-miterlimit="10"></path><path d="M19.82969,20.93871c0.42908,-0.00906 0.71732,0.34085 0.63069,0.76593c-0.39933,1.43638 -0.81777,2.87327 -1.22446,4.30984c-0.08331,0.45045 -0.44636,1.02484 -0.97791,1.0676c-1.39996,0.01037 -2.79484,0.0015 -4.19285,0.00444l-1.05769,3.70956c-0.15339,0.45832 -0.17781,1.01341 -0.68842,1.34003c-0.60326,0.43463 -1.366,0.08288 -1.21526,-0.56482c0.9023,-3.20006 1.82354,-6.4006 2.73312,-9.60085c0.06828,-0.47511 0.53396,-0.99016 1.04913,-1.02459c1.6501,-0.01095 3.29539,-0.00334 4.94364,-0.00715zM15.19882,23.09415l-0.5494,1.92688c-0.09598,0.33663 0.11933,0.6076 0.48279,0.6076h1.97733c0.36346,0 0.73336,-0.27098 0.82934,-0.6076l0.5494,-1.92688c0.09598,-0.33663 -0.11939,-0.6076 -0.48285,-0.6076h-1.97733c-0.36346,0 -0.7333,0.27098 -0.82928,0.6076zM28.34593,15.67175c0.03351,0 0.06616,0.00154 0.09795,0.0045h0.12483c0.4284,0 0.67498,0.34486 0.55284,0.77325c-0.01391,0.04879 -0.03219,0.09641 -0.05393,0.14265l-1.4169,4.96939c-0.00463,0.04623 -0.01349,0.09381 -0.0274,0.14259c-0.01391,0.04878 -0.03219,0.09642 -0.05393,0.14265l-1.19809,4.20196c-0.00463,0.04623 -0.01349,0.09381 -0.02739,0.14259c-0.12215,0.4284 -0.56539,0.77325 -0.99379,0.77325h-4.70753c-0.4284,0 -0.67499,-0.34485 -0.55284,-0.77325c0.12215,-0.4284 0.5654,-0.77331 0.9938,-0.77331h3.49935l0.83843,-2.94057h-3.4929c-0.4284,0 -0.67497,-0.34491 -0.55282,-0.77331c0.12215,-0.4284 0.56539,-0.77325 0.99379,-0.77325h3.4929l1.05726,-3.70806h-3.49935c-0.4284,0 -0.67497,-0.34491 -0.55282,-0.77331c0.12215,-0.4284 0.56539,-0.77325 0.99379,-0.77325h4.38424c0.03347,-0.00295 0.06701,-0.0045 0.10051,-0.0045zM28.17029,27.07379c-0.42908,0.00906 -0.71733,-0.34085 -0.63069,-0.76593c0.39933,-1.43638 0.81777,-2.87327 1.22446,-4.30984c0.08331,-0.45045 0.44636,-1.02484 0.97791,-1.0676c1.39997,-0.01037 2.79486,-0.0015 4.19287,-0.00444l1.05768,-3.70954c0.15339,-0.45831 0.17781,-1.0134 0.68842,-1.34003c0.60327,-0.43463 1.36601,-0.08288 1.21527,0.56482c-0.90228,3.20004 -1.82353,6.40057 -2.73311,9.60082c-0.06828,0.47511 -0.53396,0.99016 -1.04914,1.02459c-1.65011,0.01096 -3.29541,0.00335 -4.94367,0.00715zM32.80118,24.91836l0.5494,-1.92688c0.09598,-0.33663 -0.11933,-0.6076 -0.4828,-0.6076h-1.97734c-0.36346,0 -0.73336,0.27098 -0.82934,0.6076l-0.5494,1.92688c-0.09598,0.33663 0.11939,0.6076 0.48285,0.6076h1.97734c0.36346,0 0.7333,-0.27098 0.82928,-0.6076z" id="rect1386 1 1" fill="none" stroke-width="0" stroke-miterlimit="4"></path><g id="svg841 5" stroke-miterlimit="4"><g id="layer1 1"><g id="g1572 1"><path d="M19.82969,20.93871c-1.64825,0.00381 -3.29354,-0.0038 -4.94364,0.00715c-0.51517,0.03443 -0.98085,0.54947 -1.04913,1.02459c-0.90958,3.20024 -1.83083,6.40078 -2.73312,9.60085c-0.15074,0.6477 0.61199,0.99945 1.21526,0.56482c0.51061,-0.32662 0.53503,-0.88172 0.68842,-1.34003l1.05769,-3.70956c1.398,-0.00295 2.79289,0.00592 4.19285,-0.00444c0.53154,-0.04276 0.8946,-0.61715 0.97791,-1.0676c0.40669,-1.43656 0.82513,-2.87346 1.22446,-4.30984c0.08664,-0.42508 -0.20161,-0.77499 -0.63069,-0.76593zM16.0281,22.48655h1.97733c0.36346,0 0.57883,0.27098 0.48285,0.6076l-0.5494,1.92688c-0.09598,0.33663 -0.46587,0.6076 -0.82934,0.6076h-1.97733c-0.36346,0 -0.57877,-0.27098 -0.48279,-0.6076l0.5494,-1.92688c0.09598,-0.33663 0.46582,-0.6076 0.82928,-0.6076z" id="rect1386 1" fill="#f3921a" stroke-width="0.68792"></path><path d="M28.34593,15.67175c-0.03351,0 -0.06704,0.00154 -0.10051,0.0045h-4.38424c-0.4284,0 -0.87164,0.34486 -0.99379,0.77325c-0.12215,0.4284 0.12442,0.77331 0.55282,0.77331h3.49935l-1.05726,3.70806h-3.4929c-0.4284,0 -0.87164,0.34486 -0.99379,0.77325c-0.12215,0.4284 0.12442,0.77331 0.55282,0.77331h3.4929l-0.83843,2.94057h-3.49935c-0.4284,0 -0.87166,0.34491 -0.9938,0.77331c-0.12215,0.4284 0.12444,0.77325 0.55284,0.77325h4.70753c0.4284,0 0.87164,-0.34485 0.99379,-0.77325c0.01391,-0.04878 0.02277,-0.09636 0.02739,-0.14259l1.19809,-4.20196c0.02174,-0.04623 0.04003,-0.09387 0.05393,-0.14265c0.01391,-0.04878 0.02277,-0.09636 0.0274,-0.14259l1.4169,-4.96939c0.02174,-0.04624 0.04002,-0.09386 0.05393,-0.14265c0.12215,-0.4284 -0.12444,-0.77325 -0.55284,-0.77325h-0.12483c-0.03178,-0.00295 -0.06444,-0.0045 -0.09795,-0.0045z" id="rect1504 1" fill="#fdfeff" stroke-width="0.69368"></path><path d="M28.17029,27.0738c1.64825,-0.0038 3.29355,0.0038 4.94367,-0.00715c0.51517,-0.03443 0.98085,-0.54947 1.04914,-1.02459c0.90958,-3.20024 1.83083,-6.40077 2.73311,-9.60082c0.15074,-0.6477 -0.612,-0.99944 -1.21527,-0.56482c-0.51061,0.32662 -0.53503,0.88171 -0.68842,1.34003l-1.05768,3.70954c-1.39801,0.00295 -2.7929,-0.00592 -4.19287,0.00444c-0.53155,0.04276 -0.8946,0.61715 -0.97791,1.0676c-0.40669,1.43656 -0.82513,2.87346 -1.22446,4.30984c-0.08664,0.42508 0.20161,0.77499 0.63069,0.76593zM31.9719,25.52596h-1.97734c-0.36346,0 -0.57883,-0.27098 -0.48285,-0.6076l0.5494,-1.92688c0.09598,-0.33663 0.46588,-0.6076 0.82934,-0.6076h1.97734c0.36346,0 0.57878,0.27098 0.4828,0.6076l-0.5494,1.92688c-0.09598,0.33663 -0.46582,0.6076 -0.82928,0.6076z" id="rect1386-7 1" fill="#f3921a" stroke-width="0.68792"></path></g></g></g><path d="M2,24c0,-12.15026 9.84974,-22 22,-22c12.15026,0 22,9.84974 22,22c0,12.15026 -9.84974,22 -22,22c-12.15026,0 -22,-9.84974 -22,-22z" id="base 1 13 1" fill="none" stroke-width="1" stroke-miterlimit="10"></path><path d="M2,24c0,-12.15026 9.84974,-22 22,-22c12.15026,0 22,9.84974 22,22c0,12.15026 -9.84974,22 -22,22c-12.15026,0 -22,-9.84974 -22,-22z" id="base 1 9 1" fill="none" stroke-width="1" stroke-miterlimit="10"></path><path d="M2,24c0,-12.15026 9.84974,-22 22,-22c12.15026,0 22,9.84974 22,22c0,12.15026 -9.84974,22 -22,22c-12.15026,0 -22,-9.84974 -22,-22z" id="base 1 5 1" fill="none" stroke-width="1" stroke-miterlimit="10"></path><path d="M2,24c0,-12.15026 9.84974,-22 22,-22c12.15026,0 22,9.84974 22,22c0,12.15026 -9.84974,22 -22,22c-12.15026,0 -22,-9.84974 -22,-22z" id="base 1 1 1" fill="none" stroke-width="1" stroke-miterlimit="10"></path><g id="svg841 1 1" fill="#000000" stroke-width="1" stroke-miterlimit="10" font-family="Roboto, sans-serif" font-weight="400" font-size="14" text-anchor="start"><g id="layer1 1 1"><g id="g1572 1 1"></g></g></g><rect x="2" y="2" width="44" height="22" fill="none" stroke-width="1" stroke-miterlimit="10"></rect><path d="M2,24v-22h44v22z" fill="none" stroke-width="1" stroke-miterlimit="10"></path><path d="M2,24v-22h44v22z" fill="none" stroke-width="1" stroke-miterlimit="10"></path><path d="M2,24v-22h44v22z" fill="none" stroke-width="1" stroke-miterlimit="10"></path><path d="M2,24v-22h44v22z" fill="none" stroke-width="1" stroke-miterlimit="10"></path><g id="svg841 2 1" fill="#000000" stroke-width="1" stroke-miterlimit="10" font-family="Roboto, sans-serif" font-weight="400" font-size="14" text-anchor="start"><g id="layer1 1 1"><g id="g1572 1 1"></g></g></g><rect x="2" y="2" width="44" height="22" fill="none" stroke-width="1" stroke-miterlimit="10"></rect><path d="M2,24v-22h44v22z" fill="none" stroke-width="1" stroke-miterlimit="10"></path><path d="M2,24v-22h44v22z" fill="none" stroke-width="1" stroke-miterlimit="10"></path><path d="M2,24v-22h44v22z" fill="none" stroke-width="1" stroke-miterlimit="10"></path><path d="M2,24v-22h44v22z" fill="none" stroke-width="1" stroke-miterlimit="10"></path><g id="svg841 3 1" fill="#000000" stroke-width="1" stroke-miterlimit="10" font-family="Roboto, sans-serif" font-weight="400" font-size="14" text-anchor="start"><g id="layer1 1 1"><g id="g1572 1 1"></g></g></g><rect x="2" y="2" width="44" height="22" fill="none" stroke-width="1" stroke-miterlimit="10"></rect><path d="M2,24v-22h44v22z" fill="none" stroke-width="1" stroke-miterlimit="10"></path><path d="M2,24v-22h44v22z" fill="none" stroke-width="1" stroke-miterlimit="10"></path><path d="M2,24v-22h44v22z" fill="none" stroke-width="1" stroke-miterlimit="10"></path><path d="M2,24v-22h44v22z" fill="none" stroke-width="1" stroke-miterlimit="10"></path><g id="svg841 4 1" fill="#000000" stroke-width="1" stroke-miterlimit="10" font-family="Roboto, sans-serif" font-weight="400" font-size="14" text-anchor="start"><g id="layer1 1 1"><g id="g1572 1 1"></g></g></g><rect x="2" y="2" width="44" height="22" fill="none" stroke-width="1" stroke-miterlimit="10"></rect><path d="M2,24v-22h44v22z" fill="none" stroke-width="1" stroke-miterlimit="10"></path><path d="M2,24v-22h44v22z" fill="none" stroke-width="1" stroke-miterlimit="10"></path><path d="M2,24v-22h44v22z" fill="none" stroke-width="1" stroke-miterlimit="10"></path><path d="M2,24v-22h44v22z" fill="none" stroke-width="1" stroke-miterlimit="10"></path></g></svg>