<?xml version="1.0" encoding="UTF-8" standalone="no"?>
<svg
   xmlns:dc="http://purl.org/dc/elements/1.1/"
   xmlns:cc="http://creativecommons.org/ns#"
   xmlns:rdf="http://www.w3.org/1999/02/22-rdf-syntax-ns#"
   xmlns:svg="http://www.w3.org/2000/svg"
   xmlns="http://www.w3.org/2000/svg"
   xmlns:sodipodi="http://sodipodi.sourceforge.net/DTD/sodipodi-0.dtd"
   xmlns:inkscape="http://www.inkscape.org/namespaces/inkscape"
   version="1.1"
   width="128"
   height="128"
   id="svg1195"
   sodipodi:docname="icon_2_colors.svg"
   inkscape:version="0.92.2 2405546, 2018-03-11">
  <metadata
     id="metadata1199">
    <rdf:RDF>
      <cc:Work
         rdf:about="">
        <dc:format>image/svg+xml</dc:format>
        <dc:type
           rdf:resource="http://purl.org/dc/dcmitype/StillImage" />
        <dc:title></dc:title>
      </cc:Work>
    </rdf:RDF>
  </metadata>
  <sodipodi:namedview
     pagecolor="#ffffff"
     bordercolor="#666666"
     borderopacity="1"
     objecttolerance="10"
     gridtolerance="10"
     guidetolerance="10"
     inkscape:pageopacity="0"
     inkscape:pageshadow="2"
     inkscape:window-width="1600"
     inkscape:window-height="847"
     id="namedview1197"
     showgrid="false"
     inkscape:pagecheckerboard="true"
     inkscape:zoom="4.9166667"
     inkscape:cx="29.761735"
     inkscape:cy="59.102993"
     inkscape:window-x="0"
     inkscape:window-y="25"
     inkscape:window-maximized="1"
     inkscape:current-layer="g1193" />
  <defs
     id="defs1119">
    <linearGradient
       x1="11.08448"
       y1="15.67174"
       x2="56.7145"
       y2="52.127251"
       gradientUnits="userSpaceOnUse"
       id="color-1">
      <stop
         offset="0.23"
         stop-color="#000000"
         stop-opacity="0.3"
         id="stop1096" />
      <stop
         offset="1"
         stop-color="#000000"
         stop-opacity="0"
         id="stop1098" />
    </linearGradient>
    <filter
       id="dropshadow-base">
      <feColorMatrix
         type="matrix"
         values="0 0 0 0 0  0 0 0 0 0  0 0 0 0 0  0 0 0 .8 0"
         id="feColorMatrix1101" />
      <feOffset
         dx="0"
         dy="1"
         id="feOffset1103" />
      <feGaussianBlur
         stdDeviation="1"
         id="feGaussianBlur1105"
         result="result1" />
      <feComposite
         in="SourceGraphic"
         in2="result1"
         id="feComposite1107" />
    </filter>
    <filter
       id="dropshadow-banner"
       x="-0.1"
       y="-0.1"
       width="1.2"
       height="1.3">
      <feColorMatrix
         type="matrix"
         values="0 0 0 0 0  0 0 0 0 0  0 0 0 0 0  0 0 0 .4 0"
         id="feColorMatrix1110" />
      <feOffset
         dx="0"
         dy="1"
         id="feOffset1112" />
      <feGaussianBlur
         stdDeviation="0.5"
         id="feGaussianBlur1114"
         result="result1" />
      <feComposite
         in="SourceGraphic"
         in2="result1"
         id="feComposite1116" />
    </filter>
  </defs>
  <g
     stroke-width="none"
     stroke-miterlimit="none"
     font-weight="none"
     font-size="none"
     text-anchor="none"
     style="font-family:none;mix-blend-mode:normal;fill:none;fill-rule:nonzero;stroke:none;stroke-linecap:butt;stroke-linejoin:miter;stroke-dasharray:none;stroke-dashoffset:0"
     id="g1193"
     transform="matrix(3.1540832,0,0,3.1540832,-10.816641,-11.359013)">
    <path
       style="opacity:1;vector-effect:none;fill:#ffffff;fill-opacity:1;stroke:none;stroke-width:0.95794237px;stroke-linecap:butt;stroke-linejoin:miter;stroke-miterlimit:4;stroke-dasharray:none;stroke-dashoffset:0;stroke-opacity:1;paint-order:stroke fill markers"
       d="M 24.478516 4.4785156 C 13.398516 4.4785156 4.4785156 13.398516 4.4785156 24.478516 L 4.4785156 103.52148 C 4.4785156 114.60148 13.398516 123.52148 24.478516 123.52148 L 103.52148 123.52148 C 114.60148 123.52148 123.52148 114.60148 123.52148 103.52148 L 123.52148 24.478516 C 123.52148 13.398516 114.60148 4.4785156 103.52148 4.4785156 L 24.478516 4.4785156 z M 83.378906 28.890625 C 83.521543 28.890625 83.661596 28.89754 83.796875 28.910156 L 84.328125 28.910156 C 86.151579 28.910156 87.201563 30.377721 86.681641 32.201172 C 86.622438 32.408843 86.543713 32.611779 86.451172 32.808594 L 80.419922 53.958984 C 80.400209 54.155758 80.363889 54.358773 80.304688 54.566406 C 80.245517 54.774033 80.16676 54.977045 80.074219 55.173828 L 74.974609 73.058594 C 74.954959 73.255368 74.916624 73.458382 74.857422 73.666016 C 74.3375 75.489467 72.452357 76.957031 70.628906 76.957031 L 50.589844 76.957031 C 48.766389 76.957031 47.718359 75.489467 48.238281 73.666016 C 48.758162 71.842564 50.643343 70.375 52.466797 70.375 L 67.363281 70.375 L 70.931641 57.859375 L 56.064453 57.859375 C 54.241002 57.859375 53.191015 56.389857 53.710938 54.566406 C 54.230859 52.742996 56.117955 51.275391 57.941406 51.275391 L 72.808594 51.275391 L 77.308594 35.492188 L 62.414062 35.492188 C 60.590612 35.492188 59.540625 34.024626 60.060547 32.201172 C 60.580469 30.377765 62.467561 28.910156 64.291016 28.910156 L 82.951172 28.910156 C 83.093636 28.897225 83.236279 28.890625 83.378906 28.890625 z M 117.06641 28.945312 C 118.81679 28.971544 120.21455 30.270656 119.77344 32.166016 C 115.93295 45.786782 112.01218 59.409673 108.14062 73.03125 C 107.84996 75.053563 105.86661 77.246039 103.67383 77.392578 C 96.650216 77.438943 89.648462 77.405789 82.632812 77.421875 C 80.806467 77.46044 79.57849 75.97143 79.947266 74.162109 C 81.646985 68.048266 83.42911 61.932966 85.160156 55.818359 C 85.514757 53.901052 87.059766 51.455427 89.322266 51.273438 C 95.281133 51.229596 101.21744 51.266523 107.16797 51.253906 L 111.66992 35.464844 C 112.32281 33.51404 112.42624 31.15195 114.59961 29.761719 C 115.40204 29.183616 116.27078 28.93339 117.06641 28.945312 z M 47.130859 51.308594 C 48.957206 51.270032 50.183232 52.759038 49.814453 54.568359 C 48.114737 60.6822 46.334562 66.799454 44.603516 72.914062 C 44.248915 74.831367 42.703865 77.275009 40.441406 77.457031 C 34.482583 77.500873 28.544231 77.464263 22.59375 77.476562 L 18.091797 93.265625 C 17.438904 95.216384 17.335482 97.578515 15.162109 98.96875 C 12.594337 100.81872 9.348621 99.323289 9.9902344 96.566406 C 13.830762 82.945552 17.751489 69.322692 21.623047 55.701172 C 21.913674 53.678859 23.895109 51.486382 26.087891 51.339844 C 33.111413 51.293479 40.11521 51.32468 47.130859 51.308594 z M 94.210938 57.460938 C 92.663898 57.460938 91.088216 58.614038 90.679688 60.046875 L 88.341797 68.248047 C 87.933267 69.680843 88.849444 70.833984 90.396484 70.833984 L 98.8125 70.833984 C 100.35954 70.833984 101.93522 69.680887 102.34375 68.248047 L 104.68164 60.046875 C 105.09017 58.614079 104.17399 57.460938 102.62695 57.460938 L 94.210938 57.460938 z M 30.949219 57.896484 C 29.402179 57.896484 27.828451 59.049582 27.419922 60.482422 L 25.082031 68.685547 C 24.673499 70.118343 25.589679 71.271484 27.136719 71.271484 L 35.552734 71.271484 C 37.099815 71.271484 38.673502 70.118384 39.082031 68.685547 L 41.421875 60.482422 C 41.830404 59.049626 40.912274 57.896484 39.365234 57.896484 L 30.949219 57.896484 z "
       transform="matrix(0.31704934,0,0,0.31704934,3.4294089,3.6013676)"
       id="rect1744" />
    <path
       d="m 19.82969,20.93871 c 0.42908,-0.0091 0.71732,0.34085 0.63069,0.76593 -0.39933,1.43638 -0.81777,2.87327 -1.22446,4.30984 -0.08331,0.45045 -0.44636,1.02484 -0.97791,1.0676 -1.39996,0.01037 -2.79484,0.0015 -4.19285,0.0044 l -1.05769,3.70956 c -0.15339,0.45832 -0.17781,1.01341 -0.68842,1.34003 -0.60326,0.43463 -1.366,0.08288 -1.21526,-0.56482 0.9023,-3.20006 1.82354,-6.4006 2.73312,-9.60085 0.06828,-0.47511 0.53396,-0.99016 1.04913,-1.02459 1.6501,-0.01095 3.29539,-0.0033 4.94364,-0.0071 z m -4.63087,2.15544 -0.5494,1.92688 c -0.09598,0.33663 0.11933,0.6076 0.48279,0.6076 h 1.97733 c 0.36346,0 0.73336,-0.27098 0.82934,-0.6076 l 0.5494,-1.92688 c 0.09598,-0.33663 -0.11939,-0.6076 -0.48285,-0.6076 H 16.0281 c -0.36346,0 -0.7333,0.27098 -0.82928,0.6076 z m 13.14711,-7.4224 c 0.03351,0 0.06616,0.0015 0.09795,0.0045 h 0.12483 c 0.4284,0 0.67498,0.34486 0.55284,0.77325 -0.01391,0.04879 -0.03219,0.09641 -0.05393,0.14265 l -1.4169,4.96939 c -0.0046,0.04623 -0.01349,0.09381 -0.0274,0.14259 -0.01391,0.04878 -0.03219,0.09642 -0.05393,0.14265 l -1.19809,4.20196 c -0.0046,0.04623 -0.01349,0.09381 -0.02739,0.14259 -0.12215,0.4284 -0.56539,0.77325 -0.99379,0.77325 h -4.70753 c -0.4284,0 -0.67499,-0.34485 -0.55284,-0.77325 0.12215,-0.4284 0.5654,-0.77331 0.9938,-0.77331 h 3.49935 l 0.83843,-2.94057 h -3.4929 c -0.4284,0 -0.67497,-0.34491 -0.55282,-0.77331 0.12215,-0.4284 0.56539,-0.77325 0.99379,-0.77325 h 3.4929 l 1.05726,-3.70806 h -3.49935 c -0.4284,0 -0.67497,-0.34491 -0.55282,-0.77331 0.12215,-0.4284 0.56539,-0.77325 0.99379,-0.77325 h 4.38424 c 0.03347,-0.003 0.06701,-0.0045 0.10051,-0.0045 z m -0.17564,11.40204 c -0.42908,0.0091 -0.71733,-0.34085 -0.63069,-0.76593 0.39933,-1.43638 0.81777,-2.87327 1.22446,-4.30984 0.08331,-0.45045 0.44636,-1.02484 0.97791,-1.0676 1.39997,-0.01037 2.79486,-0.0015 4.19287,-0.0044 l 1.05768,-3.70954 c 0.15339,-0.45831 0.17781,-1.0134 0.68842,-1.34003 0.60327,-0.43463 1.36601,-0.08288 1.21527,0.56482 -0.90228,3.20004 -1.82353,6.40057 -2.73311,9.60082 -0.06828,0.47511 -0.53396,0.99016 -1.04914,1.02459 -1.65011,0.01096 -3.29541,0.0034 -4.94367,0.0071 z m 4.63089,-2.15543 0.5494,-1.92688 c 0.09598,-0.33663 -0.11933,-0.6076 -0.4828,-0.6076 h -1.97734 c -0.36346,0 -0.73336,0.27098 -0.82934,0.6076 l -0.5494,1.92688 c -0.09598,0.33663 0.11939,0.6076 0.48285,0.6076 h 1.97734 c 0.36346,0 0.7333,-0.27098 0.82928,-0.6076 z"
       id="rect1386 1 1"
       stroke-miterlimit="4"
       inkscape:connector-curvature="0"
       style="fill:none;stroke-width:0;stroke-miterlimit:4" />
    <path
       d="M 2,24 C 2,11.84974 11.84974,2 24,2 36.15026,2 46,11.84974 46,24 46,36.15026 36.15026,46 24,46 11.84974,46 2,36.15026 2,24 Z"
       id="base 1 13 1"
       stroke-miterlimit="10"
       inkscape:connector-curvature="0"
       style="fill:none;stroke-width:1;stroke-miterlimit:10" />
    <path
       d="M 2,24 C 2,11.84974 11.84974,2 24,2 36.15026,2 46,11.84974 46,24 46,36.15026 36.15026,46 24,46 11.84974,46 2,36.15026 2,24 Z"
       id="base 1 9 1"
       stroke-miterlimit="10"
       inkscape:connector-curvature="0"
       style="fill:none;stroke-width:1;stroke-miterlimit:10" />
    <path
       d="M 2,24 C 2,11.84974 11.84974,2 24,2 36.15026,2 46,11.84974 46,24 46,36.15026 36.15026,46 24,46 11.84974,46 2,36.15026 2,24 Z"
       id="base 1 5 1"
       stroke-miterlimit="10"
       inkscape:connector-curvature="0"
       style="fill:none;stroke-width:1;stroke-miterlimit:10" />
    <path
       d="M 2,24 C 2,11.84974 11.84974,2 24,2 36.15026,2 46,11.84974 46,24 46,36.15026 36.15026,46 24,46 11.84974,46 2,36.15026 2,24 Z"
       id="base 1 1 1"
       stroke-miterlimit="10"
       inkscape:connector-curvature="0"
       style="fill:none;stroke-width:1;stroke-miterlimit:10" />
    <g
       id="svg841 1 1"
       stroke-miterlimit="10"
       font-weight="400"
       font-size="14"
       style="font-weight:400;font-size:14px;font-family:Roboto, sans-serif;text-anchor:start;fill:#000000;stroke-width:1;stroke-miterlimit:10">
      <g
         id="layer1 1 1">
        <g
           id="g1572 1 1" />
      </g>
    </g>
    <rect
       x="2"
       y="2"
       width="44"
       height="22"
       stroke-miterlimit="10"
       id="rect1138"
       style="fill:none;stroke-width:1;stroke-miterlimit:10" />
    <path
       d="M 2,24 V 2 h 44 v 22 z"
       stroke-miterlimit="10"
       id="path1140"
       inkscape:connector-curvature="0"
       style="fill:none;stroke-width:1;stroke-miterlimit:10" />
    <path
       d="M 2,24 V 2 h 44 v 22 z"
       stroke-miterlimit="10"
       id="path1142"
       inkscape:connector-curvature="0"
       style="fill:none;stroke-width:1;stroke-miterlimit:10" />
    <path
       d="M 2,24 V 2 h 44 v 22 z"
       stroke-miterlimit="10"
       id="path1144"
       inkscape:connector-curvature="0"
       style="fill:none;stroke-width:1;stroke-miterlimit:10" />
    <path
       d="M 2,24 V 2 h 44 v 22 z"
       stroke-miterlimit="10"
       id="path1146"
       inkscape:connector-curvature="0"
       style="fill:none;stroke-width:1;stroke-miterlimit:10" />
    <g
       id="svg841 2 1"
       stroke-miterlimit="10"
       font-weight="400"
       font-size="14"
       style="font-weight:400;font-size:14px;font-family:Roboto, sans-serif;text-anchor:start;fill:#000000;stroke-width:1;stroke-miterlimit:10">
      <g
         id="g1150">
        <g
           id="g1148" />
      </g>
    </g>
    <rect
       x="2"
       y="2"
       width="44"
       height="22"
       stroke-miterlimit="10"
       id="rect1153"
       style="fill:none;stroke-width:1;stroke-miterlimit:10" />
    <path
       d="M 2,24 V 2 h 44 v 22 z"
       stroke-miterlimit="10"
       id="path1155"
       inkscape:connector-curvature="0"
       style="fill:none;stroke-width:1;stroke-miterlimit:10" />
    <path
       d="M 2,24 V 2 h 44 v 22 z"
       stroke-miterlimit="10"
       id="path1157"
       inkscape:connector-curvature="0"
       style="fill:none;stroke-width:1;stroke-miterlimit:10" />
    <path
       d="M 2,24 V 2 h 44 v 22 z"
       stroke-miterlimit="10"
       id="path1159"
       inkscape:connector-curvature="0"
       style="fill:none;stroke-width:1;stroke-miterlimit:10" />
    <path
       d="M 2,24 V 2 h 44 v 22 z"
       stroke-miterlimit="10"
       id="path1161"
       inkscape:connector-curvature="0"
       style="fill:none;stroke-width:1;stroke-miterlimit:10" />
    <g
       id="svg841 3 1"
       stroke-miterlimit="10"
       font-weight="400"
       font-size="14"
       style="font-weight:400;font-size:14px;font-family:Roboto, sans-serif;text-anchor:start;fill:#000000;stroke-width:1;stroke-miterlimit:10">
      <g
         id="g1165">
        <g
           id="g1163" />
      </g>
    </g>
    <rect
       x="2"
       y="2"
       width="44"
       height="22"
       stroke-miterlimit="10"
       id="rect1168"
       style="fill:none;stroke-width:1;stroke-miterlimit:10" />
    <path
       d="M 2,24 V 2 h 44 v 22 z"
       stroke-miterlimit="10"
       id="path1170"
       inkscape:connector-curvature="0"
       style="fill:none;stroke-width:1;stroke-miterlimit:10" />
    <path
       d="M 2,24 V 2 h 44 v 22 z"
       stroke-miterlimit="10"
       id="path1172"
       inkscape:connector-curvature="0"
       style="fill:none;stroke-width:1;stroke-miterlimit:10" />
    <path
       d="M 2,24 V 2 h 44 v 22 z"
       stroke-miterlimit="10"
       id="path1174"
       inkscape:connector-curvature="0"
       style="fill:none;stroke-width:1;stroke-miterlimit:10" />
    <path
       d="M 2,24 V 2 h 44 v 22 z"
       stroke-miterlimit="10"
       id="path1176"
       inkscape:connector-curvature="0"
       style="fill:none;stroke-width:1;stroke-miterlimit:10" />
    <g
       id="svg841 4 1"
       stroke-miterlimit="10"
       font-weight="400"
       font-size="14"
       style="font-weight:400;font-size:14px;font-family:Roboto, sans-serif;text-anchor:start;fill:#000000;stroke-width:1;stroke-miterlimit:10">
      <g
         id="g1180">
        <g
           id="g1178" />
      </g>
    </g>
    <rect
       x="2"
       y="2"
       width="44"
       height="22"
       stroke-miterlimit="10"
       id="rect1183"
       style="fill:none;stroke-width:1;stroke-miterlimit:10" />
    <path
       d="M 2,24 V 2 h 44 v 22 z"
       stroke-miterlimit="10"
       id="path1185"
       inkscape:connector-curvature="0"
       style="fill:none;stroke-width:1;stroke-miterlimit:10" />
    <path
       d="M 2,24 V 2 h 44 v 22 z"
       stroke-miterlimit="10"
       id="path1187"
       inkscape:connector-curvature="0"
       style="fill:none;stroke-width:1;stroke-miterlimit:10" />
    <path
       d="M 2,24 V 2 h 44 v 22 z"
       stroke-miterlimit="10"
       id="path1189"
       inkscape:connector-curvature="0"
       style="fill:none;stroke-width:1;stroke-miterlimit:10" />
    <path
       d="M 2,24 V 2 h 44 v 22 z"
       stroke-miterlimit="10"
       id="path1191"
       inkscape:connector-curvature="0"
       style="fill:none;stroke-width:1;stroke-miterlimit:10" />
  </g>
</svg>
